<?xml version="1.0" encoding="UTF-8" standalone="no"?>
<!-- Created with Serif DrawPlus 11, 0, 3, 23 (Feb 25, 14:12:55) (http://www.serif.com) -->

<svg
   xmlns:dc="http://purl.org/dc/elements/1.1/"
   xmlns:cc="http://creativecommons.org/ns#"
   xmlns:rdf="http://www.w3.org/1999/02/22-rdf-syntax-ns#"
   xmlns:svg="http://www.w3.org/2000/svg"
   xmlns="http://www.w3.org/2000/svg"
   xmlns:sodipodi="http://sodipodi.sourceforge.net/DTD/sodipodi-0.dtd"
   xmlns:inkscape="http://www.inkscape.org/namespaces/inkscape"
   version="1.1"
   width="800"
   height="270"
   id="svg4178"
   sodipodi:docname="n_vector_positive_orientation.svg"
   inkscape:version="0.92.3 (2405546, 2018-03-11)">
  <metadata
     id="metadata4182">
    <rdf:RDF>
      <cc:Work
         rdf:about="">
        <dc:format>image/svg+xml</dc:format>
        <dc:type
           rdf:resource="http://purl.org/dc/dcmitype/StillImage" />
        <dc:title></dc:title>
      </cc:Work>
    </rdf:RDF>
  </metadata>
  <sodipodi:namedview
     pagecolor="#ffffff"
     bordercolor="#666666"
     borderopacity="1"
     objecttolerance="10"
     gridtolerance="10"
     guidetolerance="10"
     inkscape:pageopacity="0"
     inkscape:pageshadow="2"
     inkscape:window-width="1846"
     inkscape:window-height="1053"
     id="namedview4180"
     showgrid="false"
     inkscape:zoom="1.602197"
     inkscape:cx="398.5091"
     inkscape:cy="138.82603"
     inkscape:window-x="-9"
     inkscape:window-y="-9"
     inkscape:window-maximized="1"
     inkscape:current-layer="svg4178" />
  <defs
     id="defs4009">
    <radialGradient
       id="grad_dp_001-4-9"
       gradientUnits="userSpaceOnUse"
       cx="1300.8101"
       cy="675.29901"
       gradientTransform="matrix(-126.895,-2.69383,3.65601,-172.219,163898,120479)"
       r="1">
      <stop
         offset="0"
         stop-color="#0b04c9"
         stop-opacity="0.847059"
         id="stop3981-0-9" />
      <stop
         offset="0"
         stop-color="#0b04c9"
         stop-opacity="0.572549"
         id="stop3983-6-2" />
      <stop
         offset="0"
         stop-color="#1a14cc"
         stop-opacity="0.572549"
         id="stop3985-1-6" />
      <stop
         offset="0"
         stop-color="#0b04c9"
         stop-opacity="0.576471"
         id="stop3987-9-1" />
      <stop
         offset="0.4523"
         stop-color="#0b04c9"
         stop-opacity="0.462745"
         id="stop3989-9-4" />
      <stop
         offset="1"
         stop-color="white"
         stop-opacity="0.517647"
         id="stop3991-6-3" />
    </radialGradient>
    <radialGradient
       id="grad_dp_002-1-4"
       gradientUnits="userSpaceOnUse"
       cx="1348.99"
       cy="606.08301"
       gradientTransform="matrix(178.731,-53.7718,40.064,133.168,-264039,-7567.24)"
       r="1">
      <stop
         offset="0"
         stop-color="white"
         stop-opacity="0"
         id="stop3994-5-6" />
      <stop
         offset="0"
         stop-color="#0b04c9"
         stop-opacity="0.572549"
         id="stop3996-4-3" />
      <stop
         offset="0"
         stop-color="#1a14cc"
         stop-opacity="0.572549"
         id="stop3998-5-8" />
      <stop
         offset="0"
         stop-color="#0b04c9"
         stop-opacity="0.576471"
         id="stop4000-9-5" />
      <stop
         offset="0.6106"
         stop-color="#0b04c9"
         stop-opacity="0.501961"
         id="stop4002-6-8" />
      <stop
         offset="0.7279"
         stop-color="#0b04c9"
         stop-opacity="0.654902"
         id="stop4004-1-8" />
      <stop
         offset="1"
         stop-color="#0b04c9"
         id="stop4006-8-4" />
    </radialGradient>
  </defs>
  <g
     id="dp_group001"
     transform="translate(-928.997,-467.19498)">
    <g
       id="g4770"
       transform="translate(-158.32548,8.6049322)">
      <g
         transform="translate(4.0241665,436.01219)"
         id="dp_group146-6-9">
        <path
           d="m 1164.02,159.831 c 1.95,0 3.53,1.58 3.53,3.528 0,1.948 -1.58,3.528 -3.53,3.528 -1.94,0 -3.52,-1.58 -3.52,-3.528 0,-1.948 1.58,-3.528 3.52,-3.528 z"
           id="dp_path147-6-6"
           inkscape:connector-curvature="0"
           style="fill:#000000;fill-rule:evenodd;stroke:none;stroke-width:1.33333004" />
        <path
           d="m 1170.43,153.936 h 5.96 v -5.932 h 1.6 v 5.932 h 5.95 v 1.627 h -5.95 v 5.889 h -1.6 v -5.889 h -5.96 z"
           id="dp_path148-4-6"
           inkscape:connector-curvature="0"
           style="fill:#000000;fill-rule:evenodd" />
      </g>
    </g>
    <g
       id="g4778"
       transform="translate(-191.71713,36.691366)">
      <g
         transform="translate(157.60896,348.62771)"
         id="dp_group113-7-4">
        <g
           id="dp_group114-5-9">
          <path
             d="m 1201.89,258.055 -2.6,4.653 -9.86,6.704 27.45,0.084 -14.43,-23.355 z"
             id="dp_path115-1-7"
             inkscape:connector-curvature="0"
             style="fill:#c00000;fill-rule:evenodd" />
          <path
             d="m 1131.58,224.813 67.71,37.896 2.6,-4.653 -67.71,-37.896 z"
             id="dp_path116-8-6"
             inkscape:connector-curvature="0"
             style="fill:#c00000" />
        </g>
      </g>
      <path
         d="m 1293.5589,603.19271 h 6.25 v -5.932 h 1.67 v 5.932 h 6.25 v 1.626 h -6.25 v 5.89 h -1.67 v -5.89 h -6.25 z"
         id="dp_path149-4-6"
         style="fill:#c00000;fill-rule:evenodd"
         inkscape:connector-curvature="0" />
      <path
         d="m 1320.8089,600.82871 v 9.056 c 0,0.886 0.09,1.436 0.26,1.654 0.18,0.22 0.52,0.358 1.05,0.416 v 0.442 h -4.94 v -1.546 c -0.58,0.66 -1.16,1.14 -1.74,1.437 -0.58,0.297 -1.23,0.448 -1.95,0.448 -0.68,0 -1.29,-0.201 -1.82,-0.6 -0.54,-0.399 -0.89,-0.868 -1.08,-1.404 -0.18,-0.533 -0.27,-1.469 -0.27,-2.805 v -4.586 c 0,-0.88 -0.08,-1.429 -0.25,-1.644 -0.17,-0.218 -0.52,-0.36 -1.06,-0.425 v -0.443 h 4.94 v 7.895 c 0,0.824 0.04,1.356 0.13,1.595 0.08,0.238 0.21,0.42 0.39,0.542 0.17,0.124 0.38,0.186 0.62,0.186 0.31,0 0.59,-0.078 0.84,-0.235 0.35,-0.215 0.77,-0.645 1.25,-1.296 v -6.175 c 0,-0.88 -0.08,-1.429 -0.25,-1.644 -0.17,-0.218 -0.52,-0.36 -1.06,-0.425 v -0.443 z"
         id="dp_path150-2-7"
         style="fill:#c00000;fill-rule:evenodd"
         inkscape:connector-curvature="0" />
    </g>
    <g
       id="g4873"
       transform="translate(-209.19313,-13.240072)">
      <g
         transform="translate(472.47171,14.482358)"
         id="dp_group002-6-1">
        <g
           id="dp_group003-0-1">
          <g
             id="dp_group004-0-9">
            <path
               d="m 1261.93,538.737 1.86,-0.736 4.45,0.388 -7.96,-6.528 -1.33,10.208 z"
               id="dp_path005-2-4"
               inkscape:connector-curvature="0"
               style="fill:#800196;fill-rule:evenodd" />
            <path
               d="m 1272.78,560.707 -8.99,-22.706 -1.86,0.736 8.99,22.706 z"
               id="dp_path006-8-3"
               inkscape:connector-curvature="0"
               style="fill:#800196" />
          </g>
        </g>
        <g
           id="dp_group007-7-0">
          <g
             id="dp_group008-2-1">
            <path
               d="m 1238.98,653.276 -0.88,-1.796 0.04,-4.472 -5.89,8.441 10.28,0.544 z"
               id="dp_path009-4-1"
               inkscape:connector-curvature="0"
               style="fill:#800196;fill-rule:evenodd" />
            <path
               d="m 1256.52,642.48 -18.42,8.999 0.88,1.797 18.42,-8.999 z"
               id="dp_path010-5-2"
               inkscape:connector-curvature="0"
               style="fill:#800196" />
          </g>
        </g>
        <g
           id="dp_group011-0-2">
          <g
             id="dp_group012-5-0">
            <path
               d="m 1240.61,637.257 1.71,1.032 3.43,2.063 0.88,-11.147 -9.45,5.99 z"
               id="dp_path013-3-8"
               inkscape:connector-curvature="0"
               style="fill:#ff920d;fill-rule:evenodd" />
            <path
               d="m 1240.61,637.255 -0.18,0.309 -0.05,0.543 -0.03,0.328 -0.01,0.325 -0.01,0.327 -0.01,0.334 v 0.336 l 0.01,0.34 0.01,0.34 0.02,0.343 0.03,0.348 0.03,0.349 0.03,0.351 0.05,0.353 0.05,0.36 0.05,0.359 0.06,0.363 0.07,0.364 0.07,0.365 0.08,0.369 0.09,0.372 0.09,0.374 0.09,0.376 0.11,0.378 0.11,0.379 0.11,0.383 0.12,0.385 0.13,0.383 0.14,0.377 0.14,0.375 0.15,0.365 0.15,0.365 0.16,0.359 0.17,0.357 0.17,0.347 0.18,0.344 0.18,0.34 0.19,0.336 0.19,0.328 0.2,0.324 0.2,0.319 0.21,0.313 0.21,0.307 0.22,0.3 0.22,0.297 0.23,0.291 0.23,0.282 0.23,0.279 0.24,0.271 0.24,0.265 0.25,0.26 0.25,0.252 0.25,0.247 0.26,0.24 0.26,0.233 0.27,0.225 0.26,0.219 0.27,0.212 0.28,0.205 0.28,0.198 0.28,0.189 0.28,0.183 0.28,0.177 0.29,0.167 0.29,0.16 0.29,0.152 0.3,0.144 0.29,0.136 0.3,0.128 0.3,0.118 0.3,0.111 0.31,0.103 0.3,0.093 0.31,0.084 0.31,0.076 0.31,0.067 0.31,0.056 0.31,0.049 0.31,0.037 0.31,0.027 0.32,0.02 0.31,0.008 0.31,-0.003 0.31,-0.012 0.32,-0.021 0.31,-0.033 0.31,-0.044 0.31,-0.055 0.31,-0.064 0.31,-0.077 0.3,-0.086 0.31,-0.096 0.29,-0.108 0.29,-0.116 0.29,-0.124 0.28,-0.134 0.27,-0.144 0.27,-0.152 0.26,-0.163 0.26,-0.172 0.25,-0.177 0.25,-0.186 0.24,-0.194 0.23,-0.203 0.23,-0.211 0.22,-0.216 0.21,-0.225 0.21,-0.231 0.2,-0.236 0.2,-0.244 0.19,-0.253 0.18,-0.256 0.17,-0.263 0.17,-0.27 0.17,-0.275 0.15,-0.28 0.15,-0.284 0.15,-0.292 0.13,-0.297 0.13,-0.299 0.12,-0.305 0.12,-0.312 0.11,-0.316 0.1,-0.319 0.1,-0.323 0.09,-0.326 0.08,-0.332 0.08,-0.338 0.07,-0.337 0.06,-0.341 0.05,-0.347 0.05,-0.351 0.04,-0.353 0.04,-0.355 0.02,-0.357 0.02,-0.361 0.01,-0.364 0.01,-0.366 v -0.369 l -0.01,-0.371 -0.02,-0.372 -0.02,-0.374 -0.03,-0.378 -0.04,-0.38 -0.05,-0.378 -0.05,-0.382 -0.06,-0.382 -0.07,-0.384 -0.08,-0.386 -0.08,-0.384 -0.1,-0.389 -0.1,-0.387 -0.1,-0.386 -0.12,-0.39 -0.12,-0.385 -0.13,-0.383 -0.14,-0.377 -0.14,-0.375 -0.15,-0.365 -0.15,-0.365 -0.16,-0.359 -0.17,-0.357 -0.17,-0.347 -0.18,-0.344 -0.18,-0.34 -0.19,-0.336 -0.19,-0.328 -0.2,-0.324 -0.2,-0.319 -0.21,-0.312 -0.21,-0.308 -0.22,-0.301 -0.22,-0.295 -0.23,-0.292 -0.23,-0.282 -0.23,-0.279 -0.24,-0.271 -0.24,-0.264 -0.25,-0.26 -0.25,-0.254 -0.26,-0.247 -0.25,-0.239 -0.26,-0.233 -0.27,-0.225 -0.26,-0.219 -0.27,-0.212 -0.28,-0.205 -0.28,-0.198 -0.28,-0.189 -0.28,-0.183 -0.28,-0.177 -0.29,-0.167 -0.29,-0.16 -0.29,-0.152 -0.29,-0.144 -0.3,-0.136 -0.3,-0.128 -0.3,-0.118 -0.3,-0.111 -0.31,-0.103 -0.3,-0.093 -0.31,-0.084 -0.31,-0.076 -0.31,-0.067 -0.31,-0.056 -0.31,-0.049 -0.31,-0.037 -0.31,-0.027 -0.32,-0.02 -0.31,-0.008 -0.31,0.003 -0.31,0.012 -0.31,0.021 -0.32,0.033 -0.31,0.044 -0.31,0.055 -0.31,0.064 -0.29,0.072 0.48,1.941 0.25,-0.064 0.25,-0.05 0.24,-0.044 0.24,-0.034 0.25,-0.025 0.25,-0.019 0.24,-0.009 h 0.25 l 0.25,0.005 0.25,0.015 0.25,0.024 0.25,0.029 0.25,0.039 0.26,0.045 0.25,0.054 0.25,0.062 0.25,0.071 0.25,0.077 0.26,0.084 0.25,0.092 0.25,0.1 0.25,0.107 0.25,0.115 0.25,0.122 0.25,0.128 0.24,0.139 0.25,0.143 0.24,0.15 0.25,0.159 0.24,0.165 0.24,0.171 0.24,0.179 0.24,0.185 0.23,0.192 0.23,0.199 0.23,0.204 0.23,0.212 0.22,0.217 0.22,0.223 0.22,0.23 0.22,0.238 0.21,0.241 0.21,0.249 0.21,0.254 0.2,0.257 0.2,0.268 0.2,0.269 0.19,0.276 0.18,0.283 0.19,0.287 0.17,0.292 0.18,0.296 0.17,0.301 0.16,0.305 0.16,0.315 0.16,0.317 0.15,0.32 0.14,0.324 0.14,0.331 0.14,0.336 0.13,0.337 0.12,0.343 0.12,0.348 0.11,0.351 0.11,0.352 0.09,0.352 0.1,0.352 0.08,0.349 0.07,0.349 0.07,0.348 0.07,0.347 0.05,0.345 0.05,0.344 0.04,0.344 0.04,0.34 0.02,0.338 0.03,0.337 0.01,0.335 0.01,0.33 v 0.33 0.328 l -0.02,0.324 -0.01,0.321 -0.03,0.317 -0.03,0.318 -0.03,0.31 -0.04,0.306 -0.05,0.304 -0.06,0.301 -0.06,0.297 -0.06,0.292 -0.07,0.287 -0.08,0.287 -0.09,0.28 -0.09,0.276 -0.09,0.27 -0.1,0.264 -0.1,0.26 -0.11,0.259 -0.12,0.249 -0.12,0.244 -0.13,0.242 -0.13,0.234 -0.13,0.23 -0.14,0.222 -0.15,0.218 -0.15,0.213 -0.15,0.203 -0.16,0.198 -0.16,0.194 -0.17,0.188 -0.17,0.18 -0.18,0.173 -0.18,0.168 -0.19,0.16 -0.19,0.152 -0.19,0.148 -0.2,0.143 -0.2,0.132 -0.21,0.125 -0.21,0.12 -0.21,0.112 -0.22,0.105 -0.22,0.098 -0.23,0.092 -0.23,0.081 -0.23,0.075 -0.24,0.069 -0.24,0.059 -0.25,0.05 -0.24,0.044 -0.24,0.034 -0.25,0.025 -0.25,0.019 -0.24,0.009 h -0.25 l -0.25,-0.005 -0.25,-0.015 -0.25,-0.024 -0.25,-0.029 -0.25,-0.039 -0.26,-0.045 -0.25,-0.054 -0.25,-0.062 -0.25,-0.071 -0.25,-0.077 -0.26,-0.084 -0.25,-0.092 -0.25,-0.1 -0.25,-0.107 -0.25,-0.115 -0.25,-0.122 -0.25,-0.128 -0.24,-0.139 -0.25,-0.143 -0.24,-0.15 -0.25,-0.159 -0.24,-0.165 -0.24,-0.171 -0.24,-0.179 -0.24,-0.185 -0.23,-0.192 -0.23,-0.199 -0.23,-0.204 -0.23,-0.21 -0.22,-0.218 -0.22,-0.225 -0.22,-0.231 -0.22,-0.236 -0.21,-0.241 -0.21,-0.249 -0.21,-0.254 -0.2,-0.258 -0.2,-0.266 -0.19,-0.27 -0.2,-0.278 -0.18,-0.281 -0.19,-0.287 -0.17,-0.292 -0.18,-0.296 -0.17,-0.301 -0.16,-0.305 -0.16,-0.315 -0.16,-0.317 -0.15,-0.32 -0.14,-0.324 -0.14,-0.331 -0.14,-0.336 -0.13,-0.337 -0.12,-0.343 -0.12,-0.348 -0.11,-0.351 -0.11,-0.356 -0.1,-0.354 -0.1,-0.352 -0.09,-0.35 -0.08,-0.346 -0.08,-0.343 -0.07,-0.34 -0.07,-0.341 -0.06,-0.335 -0.06,-0.331 -0.05,-0.332 -0.04,-0.322 -0.04,-0.324 -0.03,-0.322 -0.03,-0.317 -0.02,-0.313 -0.02,-0.311 -0.01,-0.308 -0.01,-0.303 v -0.301 -0.295 l 0.01,-0.297 0.02,-0.291 0.02,-0.282 0.03,-0.29 -1,-0.092 0.85,0.519 0.07,-0.112 z"
               id="dp_path014-3-5"
               inkscape:connector-curvature="0"
               style="fill:#ff920d" />
          </g>
        </g>
        <g
           id="dp_group015-7-1">
          <g
             id="dp_group016-1-1">
            <path
               d="m 1260.72,570.167 1.51,-1.31 3.03,-2.618 -10.33,-4.284 2.77,10.832 z"
               id="dp_path017-5-9"
               inkscape:connector-curvature="0"
               style="fill:#ff920d;fill-rule:evenodd" />
            <path
               d="m 1255.93,559.988 0.01,-0.311 0.02,-0.3 0.02,-0.297 0.02,-0.297 0.03,-0.292 0.04,-0.287 0.04,-0.289 0.04,-0.286 0.05,-0.282 0.05,-0.279 0.06,-0.276 0.07,-0.275 0.07,-0.269 0.07,-0.271 0.08,-0.265 0.09,-0.263 0.09,-0.26 0.09,-0.254 0.1,-0.255 0.11,-0.252 0.11,-0.251 0.11,-0.242 0.12,-0.244 0.13,-0.24 0.13,-0.238 0.13,-0.233 0.14,-0.229 0.15,-0.228 0.15,-0.226 0.16,-0.222 0.16,-0.219 0.17,-0.215 0.18,-0.214 0.18,-0.21 0.18,-0.206 0.19,-0.206 0.2,-0.2 0.2,-0.197 0.21,-0.193 0.21,-0.192 0.22,-0.19 0.23,-0.184 0.23,-0.182 0.24,-0.179 0.24,-0.175 0.25,-0.173 0.26,-0.167 0.26,-0.164 0.27,-0.162 0.28,-0.159 0.28,-0.155 0.28,-0.15 0.3,-0.146 0.3,-0.144 0.31,-0.14 0.31,-0.137 0.32,-0.132 0.33,-0.127 0.33,-0.124 0.35,-0.122 0.34,-0.115 0.36,-0.113 0.36,-0.107 0.37,-0.104 0.36,-0.096 0.37,-0.088 0.36,-0.08 0.36,-0.071 0.37,-0.062 0.36,-0.056 0.36,-0.048 0.36,-0.04 0.35,-0.032 0.35,-0.024 0.36,-0.016 0.35,-0.011 h 0.35 l 0.34,0.005 0.35,0.015 0.34,0.02 0.34,0.027 0.33,0.036 0.34,0.041 0.32,0.049 0.33,0.056 0.32,0.063 0.32,0.069 0.32,0.078 0.31,0.081 0.3,0.089 0.31,0.098 0.3,0.101 0.29,0.109 0.3,0.115 0.28,0.12 0.28,0.128 0.28,0.133 0.27,0.14 0.27,0.144 0.26,0.151 0.25,0.156 0.25,0.161 0.25,0.17 0.23,0.17 0.24,0.18 0.22,0.186 0.22,0.188 0.22,0.193 0.21,0.201 0.2,0.204 0.19,0.208 0.19,0.215 0.19,0.217 0.17,0.226 0.17,0.23 0.16,0.231 0.16,0.239 0.14,0.244 0.15,0.246 0.13,0.251 0.12,0.256 0.12,0.263 0.11,0.266 0.1,0.268 0.1,0.276 0.09,0.279 0.07,0.283 0.07,0.288 0.06,0.289 0.06,0.289 0.04,0.294 0.03,0.292 0.03,0.292 0.02,0.293 v 0.291 0.296 l -0.01,0.292 -0.02,0.293 -0.02,0.292 -0.04,0.293 -0.04,0.292 -0.05,0.29 -0.06,0.293 -0.07,0.289 -0.08,0.29 -0.08,0.29 -0.09,0.286 -0.1,0.286 -0.11,0.287 -0.12,0.284 -0.12,0.283 -0.13,0.278 -0.14,0.279 -0.14,0.279 -0.16,0.274 -0.16,0.272 -0.17,0.271 -0.17,0.268 -0.18,0.264 -0.19,0.261 -0.2,0.262 -0.2,0.257 -0.21,0.252 -0.21,0.251 -0.23,0.245 -0.22,0.244 -0.24,0.239 -0.24,0.236 -0.25,0.229 -0.25,0.229 -0.26,0.224 -0.27,0.216 -0.27,0.216 -0.27,0.208 -0.29,0.207 -0.29,0.2 -0.29,0.193 -0.3,0.191 -0.3,0.184 -0.31,0.179 -0.32,0.173 -0.32,0.168 -0.32,0.161 -0.33,0.156 -0.33,0.15 -0.34,0.144 -0.35,0.137 -0.34,0.131 -0.35,0.124 -0.36,0.117 -0.36,0.111 -0.37,0.104 -0.36,0.096 -0.37,0.089 -0.36,0.079 -0.36,0.07 -0.37,0.066 -0.36,0.054 -0.36,0.047 -0.35,0.04 -0.36,0.032 -0.35,0.025 -0.36,0.016 -0.35,0.01 h -0.35 l -0.34,-0.004 -0.35,-0.015 -0.34,-0.02 -0.34,-0.028 -0.33,-0.035 -0.33,-0.041 -0.33,-0.049 -0.33,-0.056 -0.32,-0.063 -0.32,-0.069 -0.32,-0.076 -0.31,-0.084 -0.31,-0.09 -0.3,-0.096 -0.3,-0.101 -0.29,-0.109 -0.29,-0.115 -0.3,-0.125 -0.39,0.92 0.75,-0.658 -0.11,-0.126 -1.5,1.314 0.26,0.3 0.53,0.226 0.33,0.13 0.34,0.126 0.35,0.117 0.35,0.109 0.35,0.103 0.35,0.095 0.36,0.086 0.36,0.08 0.37,0.071 0.37,0.064 0.37,0.055 0.38,0.049 0.38,0.037 0.38,0.034 0.38,0.022 0.39,0.015 0.39,0.007 0.39,-0.003 0.39,-0.009 0.4,-0.019 0.4,-0.028 0.39,-0.035 0.4,-0.045 0.4,-0.052 0.41,-0.063 0.4,-0.07 0.4,-0.079 0.41,-0.089 0.41,-0.098 0.4,-0.106 0.41,-0.115 0.4,-0.124 0.39,-0.131 0.39,-0.137 0.39,-0.144 0.38,-0.153 0.37,-0.16 0.38,-0.166 0.36,-0.174 0.36,-0.18 0.36,-0.187 0.35,-0.192 0.34,-0.2 0.34,-0.205 0.34,-0.212 0.32,-0.218 0.33,-0.224 0.31,-0.228 0.31,-0.234 0.31,-0.24 0.3,-0.246 0.29,-0.25 0.28,-0.254 0.28,-0.261 0.27,-0.265 0.27,-0.271 0.25,-0.273 0.26,-0.28 0.24,-0.283 0.24,-0.287 0.23,-0.292 0.22,-0.293 0.21,-0.299 0.21,-0.304 0.2,-0.305 0.19,-0.311 0.19,-0.312 0.17,-0.317 0.17,-0.319 0.16,-0.321 0.15,-0.327 0.15,-0.328 0.13,-0.329 0.12,-0.332 0.12,-0.335 0.11,-0.338 0.1,-0.339 0.09,-0.34 0.08,-0.345 0.07,-0.342 0.06,-0.348 0.05,-0.348 0.04,-0.346 0.04,-0.351 0.02,-0.352 0.01,-0.351 v -0.349 l -0.01,-0.355 -0.02,-0.349 -0.03,-0.353 -0.04,-0.354 -0.05,-0.349 -0.06,-0.353 -0.08,-0.351 -0.08,-0.347 -0.1,-0.344 -0.1,-0.337 -0.12,-0.332 -0.12,-0.329 -0.13,-0.323 -0.15,-0.316 -0.15,-0.312 -0.16,-0.307 -0.17,-0.3 -0.18,-0.292 -0.19,-0.289 -0.19,-0.284 -0.21,-0.273 -0.21,-0.271 -0.22,-0.265 -0.23,-0.258 -0.23,-0.25 -0.24,-0.244 -0.25,-0.236 -0.26,-0.234 -0.26,-0.225 -0.27,-0.215 -0.27,-0.212 -0.28,-0.205 -0.29,-0.196 -0.29,-0.191 -0.3,-0.182 -0.31,-0.178 -0.31,-0.168 -0.31,-0.161 -0.32,-0.155 -0.33,-0.146 -0.33,-0.142 -0.33,-0.13 -0.34,-0.126 -0.35,-0.117 -0.34,-0.111 -0.36,-0.102 -0.35,-0.095 -0.36,-0.085 -0.36,-0.08 -0.37,-0.071 -0.37,-0.064 -0.37,-0.055 -0.38,-0.049 -0.38,-0.039 -0.38,-0.032 -0.38,-0.022 -0.39,-0.015 -0.39,-0.008 -0.39,0.003 -0.39,0.01 -0.4,0.019 -0.39,0.027 -0.4,0.034 -0.4,0.046 -0.4,0.053 -0.41,0.061 -0.4,0.071 -0.4,0.079 -0.41,0.09 -0.4,0.096 -0.41,0.107 -0.4,0.112 -0.39,0.117 -0.39,0.122 -0.37,0.128 -0.38,0.13 -0.36,0.135 -0.36,0.143 -0.36,0.145 -0.34,0.151 -0.34,0.153 -0.34,0.16 -0.32,0.164 -0.33,0.169 -0.31,0.174 -0.31,0.177 -0.3,0.181 -0.3,0.186 -0.29,0.193 -0.28,0.195 -0.28,0.198 -0.28,0.206 -0.26,0.206 -0.26,0.214 -0.25,0.216 -0.25,0.218 -0.24,0.226 -0.23,0.229 -0.23,0.235 -0.22,0.234 -0.22,0.239 -0.21,0.247 -0.2,0.246 -0.19,0.252 -0.19,0.256 -0.19,0.258 -0.18,0.262 -0.17,0.266 -0.16,0.269 -0.16,0.273 -0.15,0.275 -0.15,0.28 -0.14,0.281 -0.13,0.286 -0.13,0.288 -0.12,0.289 -0.12,0.292 -0.11,0.3 -0.1,0.3 -0.1,0.3 -0.09,0.305 -0.08,0.306 -0.08,0.309 -0.08,0.312 -0.06,0.316 -0.07,0.316 -0.05,0.32 -0.05,0.32 -0.05,0.321 -0.04,0.327 -0.03,0.329 -0.03,0.327 -0.02,0.332 -0.02,0.335 -0.01,0.326 z"
               id="dp_path018-5-8"
               inkscape:connector-curvature="0"
               style="fill:#ff920d" />
          </g>
        </g>
        <path
           d="m 1414.84,653.78 c 12.23,-49.853 -24.94,-104.265 -83.03,-121.528 -58.09,-17.264 -115.09,9.159 -127.32,59.012 -12.23,49.855 24.94,104.265 83.03,121.529 58.09,17.264 115.09,-9.158 127.32,-59.013"
           id="dp_path019-6-2"
           inkscape:connector-curvature="0"
           style="fill:url(#grad_dp_001-4-9);fill-rule:evenodd;stroke:none;stroke-width:2.76533008" />
        <path
           d="m 1278.33,577.437 -6.48,-16.362"
           id="dp_path020-8-1"
           inkscape:connector-curvature="0"
           style="fill:none;fill-rule:evenodd;stroke:#800196;stroke-width:2" />
        <path
           d="m 1269.53,637.236 -12.57,6.143"
           id="dp_path021-1-6"
           inkscape:connector-curvature="0"
           style="fill:none;fill-rule:evenodd;stroke:#800196;stroke-width:2" />
        <g
           id="dp_group022-6-8">
          <g
             id="dp_group023-4-1">
            <g
               id="dp_group024-6-5">
              <path
                 d="m 1348.85,647.908 -2.61,4.653 -9.86,6.704 27.45,0.084 -14.43,-23.354 z"
                 id="dp_path025-3-1"
                 inkscape:connector-curvature="0"
                 style="fill:#c00000;fill-rule:evenodd" />
              <path
                 d="m 1303.51,628.651 42.73,23.912 2.61,-4.654 -42.73,-23.912 z"
                 id="dp_path026-3-5"
                 inkscape:connector-curvature="0"
                 style="fill:#c00000" />
            </g>
          </g>
          <g
             id="dp_group027-1-3">
            <g
               id="dp_group028-4-1">
              <path
                 d="m 1353.41,586.217 3.28,4.207 2.35,11.692 10.74,-25.269 -27.13,4.236 z"
                 id="dp_path029-8-8"
                 inkscape:connector-curvature="0"
                 style="fill:#ffb200;fill-rule:evenodd" />
              <path
                 d="m 1307.72,628.599 48.97,-38.174 -3.27,-4.205 -48.98,38.173 z"
                 id="dp_path030-7-5"
                 inkscape:connector-curvature="0"
                 style="fill:#ffb200" />
            </g>
          </g>
          <g
             id="dp_group031-1-5">
            <g
               id="dp_group032-6-3">
              <path
                 d="m 1318.75,575.215 5.1,1.538 8.68,8.184 -5.84,-26.826 -19.7,19.132 z"
                 id="dp_path033-9-4"
                 inkscape:connector-curvature="0"
                 style="fill:#00e80f;fill-rule:evenodd" />
              <path
                 d="m 1308.63,627.265 15.22,-50.512 -5.1,-1.538 -15.22,50.512 z"
                 id="dp_path034-2-7"
                 inkscape:connector-curvature="0"
                 style="fill:#00e80f" />
            </g>
          </g>
        </g>
        <path
           d="m 1388.16,638.815 11.38,2.232"
           id="dp_path035-7-5"
           inkscape:connector-curvature="0"
           style="fill:none;fill-rule:evenodd;stroke:#800196;stroke-width:2" />
        <path
           d="m 1338.32,585.5 10.93,-27.629"
           id="dp_path036-4-2"
           inkscape:connector-curvature="0"
           style="fill:none;fill-rule:evenodd;stroke:#800196;stroke-width:2" />
        <path
           d="m 1297.37,684.632 -2.54,7.011"
           id="dp_path037-7-4"
           inkscape:connector-curvature="0"
           style="fill:none;fill-rule:evenodd;stroke:#800196;stroke-width:2" />
        <path
           d="m 1414.84,653.829 c 12.23,-49.853 -24.94,-104.265 -83.03,-121.528 -58.09,-17.264 -115.09,9.159 -127.32,59.012 -12.23,49.855 24.94,104.266 83.03,121.53 58.09,17.264 115.09,-9.159 127.32,-59.014"
           id="dp_path038-0-5"
           inkscape:connector-curvature="0"
           style="fill:url(#grad_dp_002-1-4);fill-rule:evenodd;stroke:none;stroke-width:2.76533008" />
        <g
           id="dp_group039-6-4">
          <g
             id="dp_group040-6-0">
            <path
               d="m 1288.06,680.313 -1.52,-1.302 -3.03,-2.607 -2.73,10.844 10.31,-4.328 z"
               id="dp_path041-9-7"
               inkscape:connector-curvature="0"
               style="fill:#ff920d;fill-rule:evenodd" />
            <path
               d="m 1279.81,689.024 -0.06,0.235 -0.04,0.256 -0.04,0.258 -0.03,0.262 -0.02,0.258 -0.01,0.266 -0.01,0.265 0.01,0.265 0.01,0.27 0.03,0.269 0.03,0.268 0.04,0.269 0.05,0.271 0.05,0.272 0.07,0.269 0.07,0.274 0.08,0.269 0.09,0.272 0.09,0.269 0.1,0.271 0.11,0.271 0.12,0.27 0.12,0.268 0.13,0.264 0.14,0.267 0.14,0.264 0.15,0.265 0.16,0.263 0.16,0.259 0.17,0.258 0.18,0.258 0.19,0.253 0.18,0.251 0.2,0.253 0.21,0.247 0.2,0.242 0.22,0.243 0.22,0.239 0.23,0.236 0.23,0.232 0.24,0.228 0.25,0.226 0.25,0.223 0.26,0.216 0.26,0.212 0.27,0.211 0.27,0.206 0.28,0.199 0.28,0.195 0.29,0.19 0.3,0.187 0.3,0.18 0.31,0.176 0.31,0.168 0.32,0.164 0.32,0.159 0.32,0.15 0.34,0.146 0.33,0.138 0.35,0.134 0.34,0.124 0.35,0.118 0.36,0.114 0.36,0.102 0.36,0.098 0.36,0.086 0.36,0.079 0.36,0.069 0.36,0.063 0.36,0.053 0.36,0.046 0.36,0.036 0.36,0.029 0.35,0.02 0.36,0.011 0.35,0.005 0.35,-0.005 0.34,-0.011 0.35,-0.02 0.35,-0.028 0.34,-0.035 0.34,-0.044 0.34,-0.05 0.33,-0.059 0.33,-0.067 0.33,-0.073 0.33,-0.081 0.32,-0.087 0.32,-0.097 0.31,-0.103 0.32,-0.109 0.31,-0.119 0.3,-0.123 0.3,-0.132 0.3,-0.137 0.29,-0.145 0.29,-0.154 0.28,-0.158 0.28,-0.164 0.27,-0.174 0.27,-0.18 0.27,-0.184 0.26,-0.192 0.25,-0.198 0.25,-0.204 0.24,-0.212 0.23,-0.216 0.24,-0.224 0.22,-0.23 0.22,-0.236 0.21,-0.238 0.21,-0.251 0.19,-0.253 0.19,-0.258 0.18,-0.264 0.18,-0.27 0.17,-0.278 0.17,-0.281 0.15,-0.285 0.15,-0.294 0.14,-0.296 0.12,-0.298 0.13,-0.31 0.11,-0.312 0.11,-0.316 0.09,-0.32 0.09,-0.326 0.08,-0.33 0.07,-0.332 0.06,-0.332 0.05,-0.332 0.04,-0.336 0.03,-0.333 0.03,-0.335 0.01,-0.329 v -0.331 -0.336 l -0.02,-0.33 -0.02,-0.33 -0.04,-0.329 -0.04,-0.328 -0.05,-0.329 -0.06,-0.324 -0.06,-0.323 -0.08,-0.323 -0.08,-0.321 -0.09,-0.317 -0.1,-0.318 -0.11,-0.312 -0.12,-0.312 -0.12,-0.312 -0.13,-0.305 -0.14,-0.303 -0.14,-0.302 -0.16,-0.299 -0.16,-0.295 -0.16,-0.289 -0.18,-0.289 -0.18,-0.286 -0.19,-0.284 -0.19,-0.277 -0.2,-0.271 -0.21,-0.272 -0.22,-0.266 -0.21,-0.262 -0.23,-0.257 -0.23,-0.253 -0.25,-0.25 -0.24,-0.245 -0.25,-0.239 -0.26,-0.233 -0.26,-0.231 -0.27,-0.225 -0.27,-0.22 -0.28,-0.215 -0.29,-0.208 -0.29,-0.202 -0.3,-0.198 -0.3,-0.19 -0.3,-0.187 -0.31,-0.179 -0.32,-0.174 -0.32,-0.167 -0.33,-0.16 -0.32,-0.153 -0.34,-0.148 -0.34,-0.142 -0.34,-0.133 -0.35,-0.125 -0.35,-0.12 -0.36,-0.111 -0.36,-0.104 -0.36,-0.097 -0.36,-0.087 -0.36,-0.079 -0.37,-0.069 -0.36,-0.063 -0.36,-0.053 -0.35,-0.045 -0.36,-0.036 -0.36,-0.03 -0.36,-0.02 -0.35,-0.01 -0.35,-0.006 -0.35,0.006 -0.35,0.01 -0.34,0.02 -0.35,0.028 -0.34,0.035 -0.34,0.044 -0.34,0.051 -0.33,0.058 -0.33,0.067 -0.33,0.073 -0.33,0.082 -0.32,0.086 -0.32,0.098 -0.32,0.102 -0.31,0.11 -0.31,0.118 -0.51,0.208 -0.18,0.21 1.5,1.317 0.03,-0.032 -0.75,-0.659 0.37,0.927 0.27,-0.112 0.27,-0.1 0.26,-0.093 0.28,-0.09 0.27,-0.081 0.28,-0.076 0.28,-0.071 0.28,-0.062 0.28,-0.056 0.29,-0.051 0.29,-0.045 0.3,-0.036 0.29,-0.032 0.3,-0.023 0.3,-0.017 0.3,-0.011 0.31,-0.003 0.31,0.003 0.31,0.011 0.31,0.017 0.31,0.024 0.31,0.033 0.31,0.04 0.32,0.046 0.31,0.054 0.32,0.062 0.32,0.07 0.32,0.076 0.32,0.084 0.31,0.094 0.32,0.097 0.31,0.104 0.31,0.112 0.3,0.117 0.3,0.123 0.29,0.129 0.29,0.138 0.29,0.141 0.28,0.145 0.28,0.154 0.27,0.157 0.27,0.163 0.26,0.169 0.26,0.173 0.26,0.179 0.25,0.184 0.24,0.185 0.24,0.194 0.24,0.196 0.23,0.201 0.23,0.207 0.22,0.209 0.21,0.213 0.21,0.218 0.2,0.221 0.2,0.225 0.19,0.23 0.19,0.229 0.18,0.235 0.18,0.241 0.16,0.24 0.17,0.241 0.15,0.248 0.15,0.25 0.15,0.252 0.14,0.254 0.13,0.256 0.12,0.258 0.12,0.262 0.11,0.263 0.11,0.264 0.1,0.264 0.09,0.269 0.08,0.27 0.08,0.269 0.07,0.271 0.06,0.272 0.06,0.274 0.05,0.276 0.04,0.274 0.04,0.274 0.02,0.279 0.02,0.276 0.02,0.277 v 0.275 0.28 l -0.01,0.279 -0.02,0.278 -0.02,0.278 -0.04,0.274 -0.04,0.276 -0.05,0.279 -0.06,0.276 -0.06,0.273 -0.08,0.271 -0.08,0.267 -0.08,0.26 -0.1,0.258 -0.1,0.251 -0.11,0.251 -0.11,0.245 -0.12,0.24 -0.13,0.237 -0.13,0.231 -0.14,0.227 -0.15,0.222 -0.15,0.219 -0.16,0.215 -0.16,0.21 -0.17,0.203 -0.18,0.201 -0.18,0.196 -0.19,0.19 -0.19,0.186 -0.19,0.182 -0.21,0.177 -0.2,0.169 -0.21,0.167 -0.22,0.16 -0.22,0.157 -0.23,0.151 -0.23,0.144 -0.24,0.14 -0.24,0.135 -0.24,0.129 -0.25,0.121 -0.25,0.119 -0.26,0.111 -0.26,0.106 -0.26,0.1 -0.27,0.094 -0.27,0.089 -0.27,0.081 -0.28,0.076 -0.28,0.071 -0.28,0.063 -0.29,0.056 -0.29,0.05 -0.29,0.046 -0.29,0.036 -0.3,0.032 -0.29,0.022 -0.3,0.018 -0.31,0.01 -0.3,0.003 -0.31,-0.003 -0.31,-0.01 -0.31,-0.018 -0.31,-0.024 -0.31,-0.033 -0.32,-0.04 -0.31,-0.045 -0.32,-0.055 -0.31,-0.061 -0.32,-0.071 -0.32,-0.076 -0.32,-0.084 -0.32,-0.092 -0.31,-0.097 -0.31,-0.106 -0.3,-0.11 -0.3,-0.118 -0.3,-0.122 -0.29,-0.127 -0.29,-0.135 -0.29,-0.137 -0.27,-0.145 -0.28,-0.15 -0.27,-0.154 -0.27,-0.159 -0.25,-0.163 -0.26,-0.169 -0.25,-0.173 -0.25,-0.178 -0.24,-0.177 -0.24,-0.184 -0.23,-0.191 -0.23,-0.192 -0.22,-0.193 -0.21,-0.197 -0.21,-0.202 -0.21,-0.205 -0.2,-0.207 -0.19,-0.209 -0.19,-0.211 -0.18,-0.216 -0.18,-0.214 -0.17,-0.216 -0.17,-0.222 -0.16,-0.221 -0.15,-0.22 -0.15,-0.224 -0.14,-0.227 -0.14,-0.222 -0.12,-0.226 -0.13,-0.226 -0.11,-0.227 -0.11,-0.229 -0.11,-0.226 -0.1,-0.225 -0.09,-0.223 -0.08,-0.225 -0.08,-0.224 -0.07,-0.224 -0.06,-0.221 -0.06,-0.22 -0.05,-0.219 -0.05,-0.216 -0.04,-0.215 -0.03,-0.213 -0.02,-0.209 -0.02,-0.208 -0.01,-0.203 -0.01,-0.204 v -0.199 l 0.01,-0.193 0.02,-0.195 0.02,-0.189 0.03,-0.184 0.03,-0.181 0.05,-0.198 z"
               id="dp_path042-8-7"
               inkscape:connector-curvature="0"
               style="fill:#ff920d" />
          </g>
        </g>
        <g
           id="dp_group043-9-2">
          <g
             id="dp_group044-7-1">
            <path
               d="m 1293.17,699.18 -1.88,-0.681 -3.08,-3.243 1.63,10.164 7.77,-6.759 z"
               id="dp_path045-2-5"
               inkscape:connector-curvature="0"
               style="fill:#800196;fill-rule:evenodd" />
            <path
               d="m 1293.89,691.304 -2.6,7.193 1.88,0.683 2.6,-7.193 z"
               id="dp_path046-5-0"
               inkscape:connector-curvature="0"
               style="fill:#800196" />
          </g>
        </g>
        <g
           id="dp_group047-8-7">
          <g
             id="dp_group048-9-3">
            <path
               d="m 1391.19,646.501 -1.56,1.25 -3.12,2.5 10.15,4.682 -2.34,-10.93 z"
               id="dp_path049-0-6"
               inkscape:connector-curvature="0"
               style="fill:#ff920d;fill-rule:evenodd" />
            <path
               d="m 1398.37,655.891 0.18,0.054 0.21,0.054 0.21,0.042 0.22,0.03 0.22,0.018 0.22,0.01 0.22,-0.003 0.22,-0.011 0.22,-0.022 0.22,-0.034 0.22,-0.04 0.22,-0.049 0.22,-0.059 0.22,-0.066 0.22,-0.078 0.22,-0.082 0.22,-0.094 0.22,-0.098 0.22,-0.107 0.21,-0.115 0.22,-0.122 0.22,-0.131 0.21,-0.137 0.21,-0.143 0.22,-0.153 0.21,-0.16 0.21,-0.163 0.21,-0.171 0.21,-0.181 0.21,-0.184 0.2,-0.193 0.21,-0.199 0.2,-0.204 0.2,-0.211 0.2,-0.218 0.19,-0.223 0.2,-0.232 0.19,-0.236 0.19,-0.241 0.19,-0.25 0.18,-0.254 0.18,-0.26 0.18,-0.268 0.18,-0.271 0.17,-0.277 0.17,-0.283 0.16,-0.291 0.17,-0.294 0.15,-0.299 0.16,-0.304 0.15,-0.313 0.15,-0.316 0.14,-0.319 0.14,-0.327 0.13,-0.332 0.13,-0.337 0.13,-0.34 0.12,-0.347 0.11,-0.352 0.11,-0.356 0.1,-0.358 0.1,-0.367 0.1,-0.371 0.08,-0.373 0.09,-0.376 0.07,-0.377 0.07,-0.375 0.06,-0.373 0.05,-0.374 0.05,-0.374 0.04,-0.37 0.03,-0.369 0.03,-0.369 0.02,-0.37 0.01,-0.362 0.01,-0.363 v -0.363 -0.36 l -0.01,-0.356 -0.02,-0.356 -0.02,-0.354 -0.04,-0.35 -0.03,-0.346 -0.04,-0.346 -0.05,-0.344 -0.06,-0.337 -0.05,-0.335 -0.07,-0.334 -0.07,-0.33 -0.08,-0.325 -0.08,-0.321 -0.09,-0.319 -0.1,-0.313 -0.1,-0.311 -0.11,-0.308 -0.11,-0.301 -0.12,-0.296 -0.12,-0.295 -0.13,-0.288 -0.13,-0.284 -0.14,-0.28 -0.15,-0.271 -0.15,-0.268 -0.15,-0.264 -0.17,-0.257 -0.16,-0.253 -0.18,-0.247 -0.18,-0.239 -0.18,-0.234 -0.19,-0.227 -0.19,-0.223 -0.2,-0.214 -0.21,-0.21 -0.21,-0.2 -0.21,-0.192 -0.22,-0.189 -0.23,-0.177 -0.23,-0.17 -0.24,-0.165 -0.24,-0.157 -0.24,-0.144 -0.25,-0.139 -0.26,-0.131 -0.26,-0.12 -0.27,-0.11 -0.27,-0.103 -0.27,-0.092 -0.28,-0.083 -0.28,-0.07 -0.28,-0.062 -0.28,-0.052 -0.28,-0.04 -0.29,-0.029 -0.28,-0.02 -0.28,-0.008 -0.28,10e-4 -0.28,0.012 -0.28,0.022 -0.28,0.029 -0.28,0.041 -0.28,0.051 -0.28,0.06 -0.27,0.068 -0.27,0.079 -0.27,0.086 -0.27,0.096 -0.27,0.104 -0.26,0.111 -0.27,0.123 -0.26,0.128 -0.25,0.137 -0.26,0.144 -0.25,0.153 -0.25,0.162 -0.25,0.166 -0.24,0.175 -0.24,0.183 -0.24,0.189 -0.24,0.196 -0.23,0.205 -0.23,0.211 -0.22,0.215 -0.22,0.222 -0.22,0.232 -0.22,0.236 -0.21,0.243 -0.21,0.249 -0.2,0.255 -0.2,0.26 -0.2,0.268 -0.19,0.272 -0.19,0.277 -0.18,0.286 -0.18,0.29 -0.18,0.295 -0.17,0.3 -0.17,0.305 -0.16,0.311 -0.15,0.317 -0.16,0.32 -0.14,0.326 -0.15,0.333 -0.13,0.335 -0.14,0.34 -0.12,0.345 -0.12,0.349 -0.12,0.354 -0.11,0.358 -0.11,0.362 -0.09,0.368 -0.1,0.369 -0.09,0.375 -0.08,0.376 -0.07,0.377 -0.07,0.375 -0.06,0.373 -0.05,0.373 -0.05,0.375 -0.04,0.369 -0.03,0.37 -0.03,0.369 -0.02,0.369 -0.01,0.363 -0.01,0.363 -0.01,0.362 0.01,0.36 0.01,0.356 0.02,0.356 0.02,0.355 0.03,0.349 0.04,0.347 0.04,0.345 0.05,0.344 0.05,0.338 0.06,0.336 0.07,0.333 0.12,0.548 0.28,0.355 1.56,-1.248 -0.13,-0.172 -0.78,0.624 0.97,-0.214 -0.06,-0.301 -0.06,-0.293 -0.06,-0.302 -0.04,-0.302 -0.05,-0.304 -0.03,-0.308 -0.04,-0.312 -0.02,-0.318 -0.03,-0.314 -0.01,-0.319 -0.01,-0.324 -0.01,-0.325 v -0.326 l 0.01,-0.328 0.02,-0.333 0.01,-0.332 0.03,-0.332 0.03,-0.337 0.04,-0.338 0.04,-0.337 0.05,-0.339 0.05,-0.341 0.06,-0.34 0.07,-0.343 0.07,-0.341 0.08,-0.34 0.09,-0.337 0.09,-0.334 0.09,-0.329 0.1,-0.324 0.11,-0.319 0.11,-0.317 0.11,-0.311 0.12,-0.308 0.13,-0.302 0.12,-0.296 0.14,-0.294 0.13,-0.288 0.14,-0.282 0.15,-0.279 0.15,-0.273 0.15,-0.268 0.16,-0.263 0.15,-0.256 0.17,-0.251 0.16,-0.245 0.17,-0.243 0.18,-0.233 0.17,-0.228 0.18,-0.223 0.18,-0.217 0.18,-0.211 0.19,-0.204 0.19,-0.197 0.19,-0.191 0.19,-0.188 0.2,-0.178 0.19,-0.171 0.2,-0.167 0.2,-0.16 0.2,-0.15 0.2,-0.146 0.21,-0.14 0.21,-0.132 0.2,-0.124 0.21,-0.117 0.21,-0.111 0.21,-0.104 0.21,-0.096 0.2,-0.089 0.22,-0.083 0.21,-0.074 0.21,-0.068 0.21,-0.06 0.21,-0.052 0.21,-0.047 0.21,-0.037 0.21,-0.031 0.21,-0.024 0.21,-0.016 0.21,-0.009 0.21,0.001 0.22,0.005 0.2,0.015 0.22,0.021 0.2,0.03 0.21,0.038 0.21,0.046 0.21,0.054 0.21,0.062 0.2,0.068 0.21,0.076 0.19,0.084 0.2,0.09 0.19,0.096 0.19,0.107 0.19,0.112 0.18,0.117 0.18,0.126 0.18,0.134 0.18,0.14 0.17,0.144 0.17,0.155 0.17,0.16 0.17,0.164 0.16,0.172 0.15,0.18 0.15,0.184 0.16,0.192 0.14,0.199 0.15,0.204 0.13,0.208 0.14,0.214 0.13,0.222 0.13,0.228 0.12,0.233 0.12,0.237 0.12,0.242 0.11,0.248 0.1,0.252 0.11,0.258 0.09,0.264 0.1,0.266 0.08,0.27 0.09,0.276 0.08,0.282 0.07,0.284 0.07,0.288 0.06,0.292 0.06,0.294 0.05,0.3 0.05,0.303 0.05,0.304 0.03,0.308 0.04,0.312 0.02,0.317 0.02,0.315 0.02,0.319 0.01,0.324 v 0.325 0.325 0.328 l -0.02,0.334 -0.01,0.332 -0.03,0.332 -0.03,0.337 -0.04,0.337 -0.04,0.338 -0.05,0.338 -0.05,0.342 -0.06,0.34 -0.07,0.342 -0.07,0.342 -0.08,0.341 -0.09,0.336 -0.09,0.329 -0.09,0.33 -0.1,0.324 -0.11,0.317 -0.11,0.315 -0.11,0.31 -0.12,0.303 -0.12,0.3 -0.12,0.295 -0.13,0.292 -0.13,0.284 -0.14,0.278 -0.14,0.275 -0.14,0.272 -0.15,0.263 -0.15,0.258 -0.15,0.254 -0.15,0.248 -0.16,0.244 -0.16,0.236 -0.16,0.23 -0.16,0.226 -0.17,0.217 -0.16,0.215 -0.17,0.209 -0.17,0.2 -0.17,0.196 -0.18,0.189 -0.17,0.182 -0.17,0.177 -0.18,0.172 -0.17,0.161 -0.18,0.158 -0.17,0.149 -0.18,0.144 -0.17,0.139 -0.18,0.13 -0.17,0.122 -0.17,0.116 -0.18,0.11 -0.17,0.102 -0.16,0.096 -0.17,0.088 -0.17,0.082 -0.16,0.075 -0.16,0.067 -0.16,0.061 -0.15,0.053 -0.15,0.046 -0.16,0.04 -0.14,0.033 -0.14,0.027 -0.14,0.02 -0.13,0.012 -0.13,0.008 h -0.13 l -0.13,-0.004 -0.12,-0.011 -0.11,-0.016 -0.1,-0.021 -0.11,-0.027 -0.13,-0.041 z"
               id="dp_path050-9-7"
               inkscape:connector-curvature="0"
               style="fill:#ff920d" />
          </g>
        </g>
        <g
           id="dp_group051-7-5">
          <g
             id="dp_group052-3-0">
            <path
               d="m 1413.17,642.704 -0.38,1.961 -2.74,3.542 9.8,-3.175 -7.87,-6.639 z"
               id="dp_path053-1-9"
               inkscape:connector-curvature="0"
               style="fill:#800196;fill-rule:evenodd" />
            <path
               d="m 1399.34,642.028 13.45,2.639 0.38,-1.963 -13.44,-2.639 z"
               id="dp_path054-0-0"
               inkscape:connector-curvature="0"
               style="fill:#800196" />
          </g>
        </g>
        <g
           id="dp_group055-9-4">
          <g
             id="dp_group056-7-8">
            <path
               d="m 1352.53,568.739 0.95,1.758 1.91,3.518 6.41,-9.159 -11.17,0.365 z"
               id="dp_path057-0-4"
               inkscape:connector-curvature="0"
               style="fill:#ff920d;fill-rule:evenodd" />
            <path
               d="m 1363.7,562.419 -0.21,-0.424 -0.22,-0.426 -0.22,-0.421 -0.24,-0.419 -0.24,-0.413 -0.26,-0.408 -0.14,-0.207 -0.13,-0.198 -0.14,-0.2 -0.14,-0.2 -0.15,-0.2 -0.15,-0.195 -0.15,-0.192 -0.16,-0.197 -0.16,-0.191 -0.16,-0.188 -0.16,-0.191 -0.18,-0.189 -0.17,-0.185 -0.18,-0.186 -0.18,-0.182 -0.18,-0.182 -0.19,-0.18 -0.2,-0.177 -0.2,-0.177 -0.2,-0.175 -0.2,-0.175 -0.22,-0.17 -0.21,-0.17 -0.22,-0.169 -0.23,-0.165 -0.22,-0.166 -0.24,-0.162 -0.23,-0.16 -0.25,-0.162 -0.25,-0.156 -0.25,-0.156 -0.26,-0.154 -0.26,-0.152 -0.27,-0.152 -0.27,-0.147 -0.28,-0.147 -0.28,-0.145 -0.29,-0.143 -0.3,-0.14 -0.3,-0.14 -0.3,-0.138 -0.31,-0.136 -0.32,-0.134 -0.32,-0.132 -0.33,-0.13 -0.34,-0.13 -0.34,-0.125 -0.35,-0.124 -0.35,-0.124 -0.36,-0.121 -0.37,-0.12 -0.37,-0.118 -0.37,-0.114 -0.38,-0.11 -0.38,-0.102 -0.38,-0.096 -0.37,-0.092 -0.38,-0.084 -0.37,-0.079 -0.37,-0.073 -0.37,-0.067 -0.36,-0.061 -0.37,-0.056 -0.36,-0.05 -0.36,-0.042 -0.36,-0.038 -0.36,-0.032 -0.35,-0.026 -0.35,-0.022 -0.35,-0.014 -0.34,-0.008 -0.34,-0.006 -0.34,0.004 -0.34,0.008 -0.33,0.012 -0.33,0.02 -0.32,0.024 -0.32,0.032 -0.32,0.035 -0.31,0.041 -0.31,0.047 -0.31,0.053 -0.3,0.059 -0.3,0.064 -0.29,0.069 -0.28,0.075 -0.29,0.081 -0.28,0.086 -0.27,0.093 -0.27,0.096 -0.26,0.104 -0.26,0.109 -0.25,0.116 -0.24,0.12 -0.25,0.128 -0.23,0.134 -0.23,0.137 -0.22,0.144 -0.22,0.152 -0.21,0.156 -0.2,0.165 -0.2,0.171 -0.18,0.173 -0.18,0.184 -0.18,0.188 -0.16,0.192 -0.16,0.202 -0.14,0.208 -0.14,0.216 -0.13,0.218 -0.12,0.22 -0.11,0.231 -0.1,0.239 -0.08,0.238 -0.08,0.244 -0.07,0.255 -0.06,0.251 -0.04,0.253 -0.03,0.256 -0.02,0.257 -0.02,0.259 v 0.257 l 0.02,0.258 0.02,0.257 0.03,0.26 0.04,0.255 0.05,0.256 0.07,0.254 0.07,0.258 0.08,0.253 0.09,0.251 0.09,0.253 0.11,0.249 0.11,0.251 0.13,0.247 0.13,0.245 0.14,0.247 0.14,0.244 0.16,0.242 0.16,0.239 0.17,0.239 0.17,0.236 0.19,0.237 0.19,0.233 0.19,0.231 0.21,0.231 0.21,0.226 0.21,0.227 0.23,0.225 0.23,0.22 0.23,0.22 0.25,0.219 0.25,0.215 0.25,0.213 0.26,0.208 0.27,0.207 0.27,0.206 0.28,0.202 0.28,0.2 0.29,0.196 0.29,0.196 0.3,0.188 0.3,0.188 0.31,0.182 0.32,0.183 0.32,0.177 0.32,0.174 0.33,0.172 0.34,0.166 0.33,0.162 0.34,0.16 0.35,0.154 0.35,0.152 0.36,0.148 0.35,0.142 0.37,0.14 0.37,0.134 0.37,0.128 0.37,0.126 0.38,0.121 0.38,0.115 0.38,0.109 0.37,0.103 0.38,0.096 0.37,0.092 0.38,0.084 0.37,0.078 0.37,0.074 0.37,0.065 0.37,0.061 0.36,0.056 0.36,0.05 0.37,0.044 0.35,0.037 0.36,0.032 0.35,0.027 0.35,0.02 0.35,0.014 0.35,0.008 0.34,0.006 0.57,-0.006 0.24,-0.126 -0.95,-1.76 -0.02,0.009 0.48,0.88 -0.01,-1 -0.31,0.003 -0.31,-0.003 -0.31,-0.008 -0.32,-0.015 -0.32,-0.017 -0.32,-0.024 -0.32,-0.029 -0.33,-0.035 -0.33,-0.039 -0.33,-0.046 -0.34,-0.051 -0.34,-0.056 -0.34,-0.063 -0.34,-0.065 -0.34,-0.073 -0.35,-0.079 -0.35,-0.084 -0.35,-0.091 -0.35,-0.094 -0.35,-0.102 -0.35,-0.106 -0.35,-0.111 -0.35,-0.117 -0.35,-0.12 -0.33,-0.124 -0.34,-0.13 -0.33,-0.133 -0.33,-0.135 -0.33,-0.141 -0.32,-0.144 -0.32,-0.147 -0.31,-0.15 -0.31,-0.154 -0.3,-0.156 -0.3,-0.162 -0.29,-0.162 -0.29,-0.166 -0.28,-0.17 -0.28,-0.172 -0.27,-0.174 -0.27,-0.175 -0.26,-0.18 -0.26,-0.181 -0.25,-0.183 -0.25,-0.185 -0.24,-0.188 -0.23,-0.19 -0.23,-0.189 -0.22,-0.193 -0.22,-0.192 -0.21,-0.196 -0.2,-0.196 -0.2,-0.196 -0.19,-0.198 -0.18,-0.2 -0.18,-0.198 -0.17,-0.202 -0.16,-0.198 -0.15,-0.2 -0.15,-0.202 -0.15,-0.198 -0.13,-0.202 -0.13,-0.2 -0.12,-0.198 -0.11,-0.196 -0.1,-0.2 -0.1,-0.196 -0.09,-0.195 -0.08,-0.196 -0.08,-0.192 -0.07,-0.192 -0.06,-0.189 -0.05,-0.188 -0.04,-0.186 -0.04,-0.184 -0.03,-0.185 -0.02,-0.177 -0.02,-0.18 -0.01,-0.178 v -0.174 l 0.01,-0.171 0.01,-0.169 0.03,-0.168 0.03,-0.168 0.03,-0.168 0.04,-0.159 0.06,-0.159 0.05,-0.158 0.07,-0.148 0.07,-0.148 0.08,-0.151 0.08,-0.144 0.09,-0.139 0.1,-0.136 0.1,-0.134 0.12,-0.134 0.12,-0.132 0.12,-0.125 0.13,-0.125 0.14,-0.123 0.15,-0.117 0.15,-0.116 0.17,-0.112 0.16,-0.11 0.18,-0.108 0.18,-0.104 0.19,-0.098 0.2,-0.096 0.2,-0.092 0.21,-0.088 0.21,-0.086 0.22,-0.08 0.23,-0.077 0.23,-0.072 0.24,-0.068 0.24,-0.064 0.25,-0.059 0.26,-0.056 0.26,-0.05 0.27,-0.046 0.27,-0.041 0.27,-0.036 0.28,-0.032 0.29,-0.027 0.29,-0.021 0.29,-0.017 0.29,-0.012 0.31,-0.008 0.3,-0.002 0.31,0.003 0.31,0.008 0.32,0.015 0.32,0.018 0.32,0.024 0.33,0.03 0.32,0.034 0.34,0.04 0.33,0.044 0.33,0.051 0.34,0.056 0.34,0.061 0.34,0.068 0.35,0.074 0.34,0.078 0.35,0.084 0.35,0.091 0.35,0.095 0.35,0.101 0.35,0.107 0.36,0.112 0.34,0.112 0.34,0.116 0.34,0.116 0.33,0.118 0.32,0.12 0.31,0.119 0.31,0.123 0.3,0.124 0.3,0.125 0.29,0.125 0.28,0.128 0.28,0.13 0.27,0.132 0.27,0.132 0.26,0.132 0.26,0.136 0.25,0.136 0.24,0.136 0.24,0.138 0.23,0.139 0.23,0.143 0.23,0.142 0.22,0.143 0.21,0.147 0.21,0.146 0.21,0.147 0.2,0.149 0.19,0.148 0.19,0.154 0.19,0.152 0.18,0.153 0.18,0.156 0.18,0.156 0.17,0.159 0.17,0.158 0.16,0.16 0.16,0.162 0.16,0.164 0.16,0.164 0.14,0.162 0.15,0.167 0.15,0.172 0.14,0.169 0.13,0.168 0.14,0.176 0.13,0.174 0.13,0.173 0.13,0.176 0.12,0.179 0.12,0.182 0.12,0.178 0.23,0.368 0.22,0.373 0.22,0.379 0.2,0.386 0.2,0.391 0.2,0.405 z"
               id="dp_path058-6-5"
               inkscape:connector-curvature="0"
               style="fill:#ff920d" />
          </g>
        </g>
        <g
           id="dp_group059-3-1">
          <g
             id="dp_group060-8-9">
            <path
               d="m 1358.7,531.256 1.86,0.736 2.99,3.331 -1.34,-10.208 -7.96,6.529 z"
               id="dp_path061-4-3"
               inkscape:connector-curvature="0"
               style="fill:#800196;fill-rule:evenodd" />
            <path
               d="m 1350.18,558.239 10.38,-26.247 -1.86,-0.736 -10.38,26.247 z"
               id="dp_path062-1-7"
               inkscape:connector-curvature="0"
               style="fill:#800196" />
          </g>
        </g>
        <path
           d="m 1323.87,550.787 -3.33,-8.508 -3.25,8.508 h -0.68 l -3.24,-8.382 c -0.48,-1.284 -0.89,-2.121 -1.23,-2.51 -0.22,-0.266 -0.55,-0.456 -0.99,-0.572 v -0.443 h 6.14 v 0.443 c -0.42,0 -0.7,0.06 -0.86,0.176 -0.16,0.116 -0.23,0.249 -0.23,0.396 0,0.141 0.14,0.566 0.41,1.272 l 1.78,4.513 1.72,-4.516 -0.12,-0.3 c -0.26,-0.62 -0.49,-1.017 -0.68,-1.187 -0.2,-0.17 -0.5,-0.289 -0.91,-0.354 v -0.443 h 6.22 v 0.443 c -0.49,0.025 -0.8,0.089 -0.93,0.192 -0.13,0.106 -0.19,0.253 -0.19,0.444 0,0.181 0.12,0.584 0.37,1.208 l 1.72,4.513 1.56,-4.155 c 0.23,-0.597 0.34,-1.002 0.34,-1.218 0,-0.326 -0.08,-0.562 -0.25,-0.71 -0.16,-0.149 -0.48,-0.24 -0.96,-0.274 v -0.443 h 3.62 v 0.443 c -0.4,0.05 -0.71,0.186 -0.95,0.405 -0.23,0.223 -0.53,0.847 -0.91,1.879 l -3.43,9.18 z"
           id="dp_path063-1-0"
           inkscape:connector-curvature="0"
           style="fill:#00e80f;fill-rule:evenodd" />
        <path
           d="m 1383.3,596.768 -4.11,-8.964 c -0.49,-1.085 -0.88,-1.773 -1.15,-2.065 -0.2,-0.215 -0.5,-0.36 -0.89,-0.435 v -0.443 h 6.46 v 0.443 c -0.41,0 -0.69,0.071 -0.84,0.212 -0.2,0.183 -0.3,0.399 -0.3,0.645 0,0.308 0.18,0.883 0.57,1.73 l 1.99,4.34 1.61,-3.747 c 0.46,-1.077 0.69,-1.839 0.69,-2.284 0,-0.259 -0.1,-0.467 -0.3,-0.629 -0.19,-0.162 -0.54,-0.25 -1.03,-0.267 v -0.443 h 3.96 v 0.443 c -0.38,0.049 -0.69,0.187 -0.93,0.409 -0.25,0.223 -0.61,0.882 -1.1,1.971 l -4.04,9.084 z"
           id="dp_path064-0-8"
           inkscape:connector-curvature="0"
           style="fill:#fa8900;fill-rule:evenodd" />
        <path
           d="m 1381.39,664.467 v 9.056 c 0,0.885 0.09,1.436 0.26,1.653 0.18,0.22 0.52,0.359 1.05,0.416 v 0.443 h -4.94 v -1.547 c -0.58,0.66 -1.16,1.14 -1.74,1.437 -0.58,0.298 -1.23,0.448 -1.95,0.448 -0.68,0 -1.29,-0.201 -1.82,-0.6 -0.54,-0.398 -0.9,-0.868 -1.08,-1.404 -0.18,-0.533 -0.27,-1.469 -0.27,-2.805 v -4.585 c 0,-0.88 -0.08,-1.43 -0.25,-1.644 -0.17,-0.219 -0.52,-0.36 -1.06,-0.426 v -0.442 h 4.94 v 7.894 c 0,0.824 0.04,1.356 0.13,1.595 0.08,0.239 0.21,0.42 0.39,0.543 0.17,0.124 0.38,0.185 0.62,0.185 0.31,0 0.59,-0.077 0.84,-0.235 0.35,-0.214 0.77,-0.645 1.25,-1.296 v -6.174 c 0,-0.88 -0.08,-1.43 -0.25,-1.644 -0.17,-0.219 -0.52,-0.36 -1.06,-0.426 v -0.442 z"
           id="dp_path065-9-2"
           inkscape:connector-curvature="0"
           style="fill:#c00000;fill-rule:evenodd" />
      </g>
      <g
         transform="translate(606.01366,-10.173131)"
         id="dp_group157-5-3">
        <path
           d="m 1145.35,519.859 v 9.056 c 0,0.885 0.09,1.436 0.26,1.653 0.18,0.22 0.52,0.359 1.05,0.416 v 0.443 h -4.94 v -1.547 c -0.58,0.66 -1.16,1.14 -1.74,1.437 -0.58,0.298 -1.23,0.448 -1.95,0.448 -0.68,0 -1.29,-0.201 -1.82,-0.6 -0.54,-0.398 -0.9,-0.868 -1.08,-1.404 -0.18,-0.533 -0.27,-1.469 -0.27,-2.805 v -4.585 c 0,-0.88 -0.08,-1.43 -0.25,-1.644 -0.17,-0.219 -0.52,-0.36 -1.06,-0.426 v -0.442 h 4.94 v 7.894 c 0,0.824 0.04,1.356 0.13,1.595 0.08,0.239 0.21,0.42 0.39,0.543 0.17,0.124 0.38,0.185 0.62,0.185 0.31,0 0.59,-0.077 0.84,-0.235 0.35,-0.214 0.77,-0.645 1.25,-1.296 v -6.174 c 0,-0.88 -0.08,-1.43 -0.25,-1.644 -0.17,-0.219 -0.52,-0.36 -1.06,-0.426 v -0.442 z"
           id="dp_path158-7-3"
           inkscape:connector-curvature="0"
           style="fill:#c00000;fill-rule:evenodd" />
        <path
           d="m 1174.09,531.765 -4.1,-8.964 c -0.5,-1.085 -0.88,-1.773 -1.16,-2.065 -0.2,-0.215 -0.49,-0.36 -0.88,-0.435 v -0.442 h 6.45 v 0.442 c -0.4,0 -0.68,0.071 -0.83,0.212 -0.21,0.183 -0.31,0.399 -0.31,0.646 0,0.308 0.19,0.882 0.57,1.729 l 2,4.34 1.6,-3.747 c 0.46,-1.077 0.69,-1.838 0.69,-2.284 0,-0.258 -0.1,-0.466 -0.29,-0.629 -0.2,-0.161 -0.54,-0.249 -1.03,-0.267 v -0.442 h 3.96 v 0.442 c -0.39,0.05 -0.7,0.187 -0.94,0.41 -0.24,0.222 -0.61,0.881 -1.09,1.97 l -4.05,9.084 z"
           id="dp_path159-6-0"
           inkscape:connector-curvature="0"
           style="fill:#fa8900;fill-rule:evenodd" />
        <path
           d="m 1151.4,531.037 6.39,-10 6.04,10"
           id="dp_path160-7-9"
           inkscape:connector-curvature="0"
           style="fill:none;fill-rule:evenodd;stroke:#000000;stroke-width:1.33333004" />
        <path
           d="m 1214.13,531.765 -3.34,-8.508 -3.25,8.508 h -0.68 l -3.24,-8.381 c -0.48,-1.284 -0.89,-2.121 -1.23,-2.511 -0.22,-0.265 -0.54,-0.456 -0.99,-0.572 v -0.442 h 6.14 v 0.442 c -0.42,0 -0.7,0.06 -0.86,0.176 -0.15,0.116 -0.23,0.25 -0.23,0.396 0,0.142 0.14,0.567 0.41,1.272 l 1.78,4.514 1.72,-4.516 -0.12,-0.3 c -0.26,-0.62 -0.49,-1.018 -0.68,-1.187 -0.2,-0.171 -0.5,-0.289 -0.91,-0.355 v -0.442 h 6.22 v 0.442 c -0.49,0.026 -0.8,0.09 -0.93,0.192 -0.13,0.107 -0.19,0.254 -0.19,0.444 0,0.182 0.12,0.584 0.38,1.208 l 1.71,4.514 1.56,-4.155 c 0.23,-0.597 0.34,-1.003 0.34,-1.219 0,-0.325 -0.08,-0.561 -0.25,-0.709 -0.16,-0.149 -0.48,-0.24 -0.96,-0.275 v -0.442 h 3.62 v 0.442 c -0.4,0.051 -0.71,0.187 -0.95,0.406 -0.23,0.222 -0.53,0.846 -0.91,1.878 l -3.43,9.18 z"
           id="dp_path161-5-0"
           inkscape:connector-curvature="0"
           style="fill:#00e80f;fill-rule:evenodd" />
        <path
           d="m 1184.89,531.037 6.39,-10 6.04,10"
           id="dp_path162-4-7"
           inkscape:connector-curvature="0"
           style="fill:none;fill-rule:evenodd;stroke:#000000;stroke-width:1.33333004" />
      </g>
    </g>
    <g
       id="g4801"
       transform="translate(-222.92427,-10.7435)">
      <g
         transform="translate(251.29752,228.44371)"
         id="dp_group131-7-5">
        <g
           id="dp_group132-1-5">
          <path
             d="m 1372.54,399.457 c 0,-22.978 -34.49,-45.968 -77.05,-45.968 -42.55,0 -77.04,21.476 -77.04,47.968 0,26.492 34.49,47.968 77.04,47.968 42.56,0 77.05,-21.476 77.05,-47.968"
             id="dp_path133-6-4"
             inkscape:connector-curvature="0"
             style="fill:#0b04c9;fill-opacity:0.76862697;fill-rule:evenodd" />
          <g
             id="dp_group134-1-4">
            <g
               id="dp_group135-4-2">
              <path
                 d="m 1368,414.775 2.73,0.634 5.45,1.27 -3.64,-15.223 -9.99,12.049 z"
                 id="dp_path136-8-0"
                 inkscape:connector-curvature="0"
                 style="fill:#fe920d;fill-rule:evenodd" />
              <path
                 d="m 1373.94,399.451 v -0.279 l -0.01,-0.287 -0.01,-0.284 -0.01,-0.282 -0.01,-0.287 -0.02,-0.291 -0.02,-0.281 -0.03,-0.283 -0.03,-0.286 -0.03,-0.287 -0.03,-0.281 -0.04,-0.287 -0.04,-0.285 -0.05,-0.284 -0.09,-0.566 -0.11,-0.565 -0.13,-0.565 -0.13,-0.564 -0.15,-0.562 -0.16,-0.561 -0.17,-0.561 -0.19,-0.559 -0.19,-0.556 -0.21,-0.556 -0.22,-0.552 -0.23,-0.553 -0.24,-0.55 -0.26,-0.549 -0.26,-0.545 -0.28,-0.544 -0.28,-0.543 -0.3,-0.539 -0.31,-0.537 -0.32,-0.537 -0.33,-0.532 -0.34,-0.532 -0.36,-0.53 -0.36,-0.525 -0.37,-0.523 -0.39,-0.52 -0.39,-0.52 -0.4,-0.516 -0.42,-0.513 -0.42,-0.508 -0.43,-0.509 -0.44,-0.504 -0.46,-0.502 -0.46,-0.498 -0.47,-0.496 -0.48,-0.491 -0.49,-0.491 -0.5,-0.485 -0.51,-0.483 -0.52,-0.48 -0.53,-0.476 -0.53,-0.472 -0.55,-0.469 -0.55,-0.464 -0.57,-0.461 -0.57,-0.458 -0.58,-0.454 -0.59,-0.452 -0.59,-0.447 -0.61,-0.441 -0.61,-0.44 -0.62,-0.435 -0.63,-0.429 -0.64,-0.428 -0.65,-0.422 -0.65,-0.417 -0.66,-0.415 -0.67,-0.408 -0.68,-0.405 -0.68,-0.399 -0.69,-0.397 -0.7,-0.391 -0.71,-0.385 -0.71,-0.383 -0.73,-0.377 -0.72,-0.371 -0.74,-0.366 -0.74,-0.362 -0.75,-0.358 -0.76,-0.351 -0.76,-0.345 -0.77,-0.343 -0.78,-0.336 -0.78,-0.331 -0.79,-0.324 -0.8,-0.318 -0.8,-0.316 -0.81,-0.307 -0.81,-0.303 -0.83,-0.297 -0.82,-0.292 -0.84,-0.284 -0.83,-0.279 -0.85,-0.274 -0.85,-0.267 -0.86,-0.26 -0.86,-0.256 -0.87,-0.248 -0.87,-0.243 -0.88,-0.234 -0.88,-0.23 -0.89,-0.221 -0.89,-0.216 -0.9,-0.209 -0.9,-0.203 -0.91,-0.196 -0.92,-0.189 -0.91,-0.182 -0.93,-0.176 -0.93,-0.168 -0.93,-0.16 -0.94,-0.153 -0.94,-0.147 -0.94,-0.138 -0.95,-0.131 -0.96,-0.124 -0.95,-0.117 -0.97,-0.11 -0.96,-0.101 -0.97,-0.093 -0.98,-0.087 -0.97,-0.077 -0.98,-0.07 -0.99,-0.062 -0.99,-0.054 -0.99,-0.046 -0.99,-0.038 -1,-0.029 -1,-0.02 -1.01,-0.013 -1.01,-0.006 -1,0.006 -1,0.012 -1.01,0.018 -0.99,0.028 -1,0.035 -0.99,0.044 -0.99,0.049 -0.98,0.06 -0.98,0.066 -0.98,0.073 -0.97,0.08 -0.97,0.089 -0.97,0.095 -0.96,0.104 -0.96,0.111 -0.95,0.117 -0.95,0.124 -0.94,0.132 -0.95,0.139 -0.93,0.148 -0.93,0.152 -0.93,0.161 -0.92,0.167 -0.92,0.173 -0.92,0.18 -0.9,0.188 -0.91,0.195 -0.9,0.201 -0.89,0.208 -0.89,0.213 -0.88,0.222 -0.88,0.226 -0.87,0.234 -0.87,0.241 -0.86,0.245 -0.86,0.255 -0.85,0.257 -0.85,0.267 -0.83,0.272 -0.84,0.277 -0.82,0.284 -0.83,0.29 -0.81,0.296 -0.81,0.301 -0.8,0.309 -0.8,0.314 -0.79,0.32 -0.79,0.325 -0.77,0.331 -0.77,0.336 -0.77,0.344 -0.75,0.348 -0.75,0.353 -0.75,0.359 -0.73,0.365 -0.73,0.371 -0.73,0.374 -0.71,0.382 -0.71,0.385 -0.7,0.393 -0.69,0.396 -0.69,0.403 -0.67,0.407 -0.67,0.412 -0.67,0.417 -0.65,0.423 -0.65,0.428 -0.64,0.432 -0.63,0.437 -0.62,0.441 -0.61,0.447 -0.61,0.452 -0.6,0.457 -0.59,0.462 -0.58,0.464 -0.57,0.472 -0.56,0.474 -0.56,0.479 -0.54,0.484 -0.54,0.488 -0.53,0.495 -0.52,0.497 -0.51,0.501 -0.5,0.506 -0.49,0.51 -0.48,0.515 -0.47,0.519 -0.47,0.522 -0.45,0.526 -0.44,0.533 -0.44,0.535 -0.42,0.537 -0.41,0.543 -0.41,0.549 -0.39,0.549 -0.38,0.556 -0.38,0.556 -0.36,0.563 -0.35,0.565 -0.34,0.571 -0.33,0.573 -0.32,0.575 -0.31,0.581 -0.3,0.583 -0.29,0.585 -0.27,0.591 -0.27,0.595 -0.25,0.597 -0.24,0.6 -0.23,0.603 -0.22,0.605 -0.2,0.611 -0.2,0.61 -0.18,0.616 -0.17,0.619 -0.16,0.615 -0.08,0.317 -0.07,0.311 -0.07,0.31 -0.06,0.315 -0.07,0.316 -0.05,0.313 -0.06,0.314 -0.05,0.318 -0.06,0.318 -0.04,0.317 -0.04,0.313 -0.05,0.32 -0.03,0.32 -0.04,0.318 -0.03,0.321 -0.03,0.321 -0.02,0.319 -0.02,0.32 -0.02,0.325 -0.01,0.324 -0.01,0.322 -0.01,0.321 -0.01,0.324 v 0.325 0.326 l 0.01,0.324 0.01,0.321 0.01,0.321 0.01,0.324 0.02,0.326 0.02,0.32 0.02,0.318 0.03,0.322 0.03,0.321 0.04,0.317 0.03,0.32 0.05,0.32 0.04,0.314 0.04,0.317 0.06,0.317 0.05,0.319 0.06,0.313 0.05,0.314 0.07,0.316 0.06,0.314 0.07,0.311 0.07,0.311 0.08,0.317 0.16,0.615 0.17,0.618 0.18,0.616 0.2,0.611 0.2,0.611 0.22,0.605 0.23,0.603 0.24,0.6 0.25,0.597 0.27,0.595 0.27,0.59 0.29,0.586 0.3,0.582 0.31,0.582 0.32,0.574 0.33,0.574 0.34,0.57 0.35,0.566 0.36,0.562 0.38,0.556 0.38,0.556 0.39,0.55 0.41,0.549 0.41,0.543 0.42,0.537 0.44,0.535 0.44,0.533 0.45,0.525 0.47,0.523 0.47,0.519 0.48,0.514 0.49,0.511 0.5,0.505 0.51,0.502 0.52,0.497 0.53,0.495 0.54,0.488 0.54,0.484 0.56,0.478 0.56,0.475 0.57,0.472 0.58,0.464 0.59,0.461 0.6,0.458 0.61,0.452 0.61,0.446 0.62,0.442 0.63,0.437 0.64,0.432 0.65,0.428 0.65,0.423 0.67,0.417 0.67,0.412 0.67,0.407 0.69,0.402 0.69,0.396 0.7,0.394 0.71,0.385 0.71,0.381 0.73,0.375 0.73,0.371 0.73,0.365 0.75,0.359 0.75,0.353 0.75,0.348 0.77,0.344 0.77,0.336 0.77,0.331 0.79,0.325 0.79,0.32 0.8,0.313 0.8,0.31 0.81,0.301 0.81,0.296 0.83,0.289 0.82,0.284 0.84,0.278 0.83,0.272 0.85,0.266 0.85,0.258 0.86,0.254 0.86,0.246 0.87,0.241 0.87,0.233 0.88,0.227 0.88,0.221 0.89,0.214 0.89,0.208 0.9,0.201 0.91,0.195 0.9,0.188 0.92,0.18 0.92,0.173 0.92,0.167 0.93,0.161 0.93,0.152 0.93,0.148 0.95,0.139 0.94,0.132 0.95,0.124 0.95,0.117 0.96,0.111 0.96,0.104 0.97,0.094 0.97,0.09 0.97,0.08 0.98,0.073 0.98,0.065 0.98,0.06 0.99,0.05 0.99,0.044 1,0.034 0.99,0.028 1.01,0.019 1,0.012 1,0.005 1.01,-0.005 1,-0.012 1.01,-0.019 0.99,-0.028 1,-0.034 0.99,-0.044 0.99,-0.05 0.98,-0.06 0.98,-0.065 0.98,-0.073 0.97,-0.08 0.97,-0.09 0.97,-0.094 0.96,-0.104 0.96,-0.111 0.95,-0.117 0.95,-0.124 0.94,-0.132 0.94,-0.139 0.94,-0.148 0.93,-0.152 0.93,-0.161 0.92,-0.167 0.92,-0.173 0.92,-0.18 0.9,-0.188 0.91,-0.195 0.9,-0.201 0.89,-0.208 0.89,-0.214 0.88,-0.221 0.88,-0.227 0.87,-0.233 0.87,-0.241 0.86,-0.246 0.86,-0.254 0.85,-0.258 0.84,-0.266 0.84,-0.272 0.84,-0.278 0.82,-0.284 0.82,-0.289 0.82,-0.296 0.81,-0.303 0.8,-0.308 0.8,-0.313 0.79,-0.32 0.78,-0.325 0.78,-0.331 0.77,-0.336 0.77,-0.343 0.75,-0.349 0.75,-0.353 0.75,-0.359 0.73,-0.365 0.73,-0.371 0.72,-0.375 0.72,-0.381 0.71,-0.385 0.7,-0.394 0.69,-0.396 0.69,-0.402 0.67,-0.407 0.67,-0.412 0.67,-0.417 0.65,-0.423 0.65,-0.428 0.63,-0.432 0.63,-0.436 0.63,-0.441 0.61,-0.448 0.61,-0.454 0.6,-0.456 0.59,-0.461 0.57,-0.464 0.58,-0.472 0.56,-0.475 0.56,-0.478 0.54,-0.484 0.54,-0.488 0.53,-0.495 0.52,-0.497 0.51,-0.502 0.5,-0.505 0.49,-0.511 0.48,-0.514 0.47,-0.519 0.46,-0.523 0.46,-0.525 0.44,-0.533 0.43,-0.535 0.43,-0.537 0.41,-0.543 0.41,-0.549 0.39,-0.55 0.38,-0.556 0.37,-0.556 0.37,-0.562 0.35,-0.566 0.34,-0.57 0.33,-0.574 0.32,-0.574 0.31,-0.582 0.3,-0.582 0.35,-0.723 0.05,-0.225 -2.73,-0.614 -0.02,0.066 1.37,0.306 -1.26,-0.616 -0.27,0.555 -0.27,0.54 -0.29,0.539 -0.29,0.534 -0.31,0.534 -0.32,0.528 -0.33,0.525 -0.34,0.525 -0.34,0.522 -0.36,0.518 -0.37,0.515 -0.38,0.512 -0.39,0.508 -0.39,0.508 -0.41,0.503 -0.42,0.498 -0.42,0.496 -0.44,0.494 -0.45,0.489 -0.45,0.488 -0.47,0.481 -0.47,0.479 -0.48,0.477 -0.5,0.471 -0.5,0.468 -0.51,0.464 -0.52,0.46 -0.53,0.457 -0.53,0.454 -0.55,0.448 -0.55,0.445 -0.57,0.44 -0.57,0.437 -0.58,0.432 -0.58,0.427 -0.6,0.423 -0.61,0.42 -0.61,0.416 -0.62,0.409 -0.63,0.407 -0.64,0.401 -0.64,0.396 -0.65,0.393 -0.66,0.387 -0.67,0.383 -0.68,0.377 -0.68,0.372 -0.69,0.368 -0.7,0.364 -0.7,0.357 -0.71,0.352 -0.72,0.348 -0.73,0.343 -0.73,0.336 -0.74,0.332 -0.75,0.325 -0.75,0.323 -0.76,0.315 -0.77,0.309 -0.77,0.305 -0.78,0.3 -0.78,0.292 -0.8,0.288 -0.79,0.282 -0.81,0.276 -0.81,0.269 -0.82,0.264 -0.82,0.259 -0.83,0.252 -0.83,0.246 -0.84,0.24 -0.84,0.234 -0.85,0.228 -0.86,0.221 -0.86,0.216 -0.86,0.208 -0.88,0.203 -0.87,0.196 -0.88,0.189 -0.89,0.183 -0.89,0.177 -0.89,0.168 -0.91,0.164 -0.9,0.156 -0.91,0.149 -0.92,0.143 -0.91,0.136 -0.93,0.129 -0.92,0.122 -0.94,0.114 -0.93,0.108 -0.94,0.102 -0.94,0.092 -0.95,0.086 -0.95,0.08 -0.96,0.071 -0.96,0.065 -0.96,0.058 -0.96,0.049 -0.97,0.041 -0.97,0.035 -0.98,0.028 -0.98,0.019 -0.98,0.012 -0.99,0.002 -0.98,-0.002 -0.98,-0.012 -0.98,-0.019 -0.98,-0.028 -0.97,-0.035 -0.97,-0.041 -0.96,-0.049 -0.96,-0.058 -0.96,-0.065 -0.96,-0.071 -0.95,-0.08 -0.95,-0.086 -0.94,-0.092 -0.94,-0.102 -0.94,-0.108 -0.93,-0.114 -0.92,-0.122 -0.93,-0.129 -0.91,-0.136 -0.92,-0.143 -0.91,-0.149 -0.9,-0.156 -0.91,-0.164 -0.89,-0.168 -0.89,-0.177 -0.89,-0.183 -0.88,-0.189 -0.88,-0.196 -0.87,-0.203 -0.86,-0.208 -0.86,-0.216 -0.86,-0.221 -0.85,-0.228 -0.84,-0.234 -0.84,-0.24 -0.84,-0.246 -0.82,-0.252 -0.83,-0.259 -0.81,-0.264 -0.81,-0.269 -0.81,-0.276 -0.8,-0.282 -0.79,-0.288 -0.78,-0.293 -0.78,-0.299 -0.77,-0.305 -0.77,-0.309 -0.76,-0.315 -0.75,-0.323 -0.75,-0.325 -0.74,-0.331 -0.73,-0.337 -0.73,-0.343 -0.72,-0.348 -0.71,-0.352 -0.7,-0.357 -0.7,-0.364 -0.69,-0.368 -0.69,-0.372 -0.67,-0.377 -0.67,-0.383 -0.66,-0.387 -0.65,-0.393 -0.65,-0.396 -0.63,-0.401 -0.63,-0.407 -0.62,-0.409 -0.62,-0.416 -0.6,-0.419 -0.6,-0.423 -0.58,-0.428 -0.58,-0.433 -0.58,-0.436 -0.56,-0.44 -0.55,-0.445 -0.55,-0.448 -0.54,-0.454 -0.52,-0.457 -0.53,-0.46 -0.51,-0.464 -0.5,-0.468 -0.49,-0.471 -0.48,-0.477 -0.48,-0.479 -0.46,-0.481 -0.45,-0.488 -0.45,-0.489 -0.44,-0.494 -0.43,-0.496 -0.41,-0.498 -0.41,-0.503 -0.4,-0.508 -0.38,-0.508 -0.38,-0.512 -0.37,-0.515 -0.36,-0.518 -0.35,-0.522 -0.34,-0.525 -0.32,-0.525 -0.32,-0.528 -0.31,-0.534 -0.29,-0.534 -0.29,-0.539 -0.27,-0.54 -0.27,-0.543 -0.25,-0.545 -0.25,-0.547 -0.23,-0.549 -0.22,-0.552 -0.22,-0.555 -0.2,-0.557 -0.19,-0.56 -0.17,-0.563 -0.17,-0.562 -0.16,-0.566 -0.14,-0.572 -0.07,-0.28 -0.07,-0.286 -0.06,-0.287 -0.06,-0.285 -0.06,-0.284 -0.05,-0.29 -0.05,-0.289 -0.05,-0.287 -0.05,-0.288 -0.04,-0.288 -0.04,-0.294 -0.04,-0.288 -0.03,-0.291 -0.03,-0.293 -0.03,-0.29 -0.03,-0.292 -0.02,-0.294 -0.02,-0.294 -0.01,-0.29 -0.02,-0.292 -0.01,-0.298 -0.01,-0.297 v -0.295 -0.296 -0.296 -0.294 l 0.01,-0.298 0.01,-0.297 0.02,-0.292 0.01,-0.291 0.02,-0.293 0.02,-0.295 0.03,-0.292 0.03,-0.289 0.03,-0.293 0.03,-0.291 0.04,-0.288 0.04,-0.295 0.04,-0.288 0.05,-0.288 0.05,-0.286 0.05,-0.29 0.05,-0.289 0.06,-0.284 0.06,-0.285 0.06,-0.287 0.07,-0.287 0.07,-0.28 0.14,-0.572 0.16,-0.565 0.17,-0.563 0.17,-0.562 0.19,-0.56 0.2,-0.558 0.22,-0.554 0.22,-0.552 0.23,-0.55 0.25,-0.546 0.25,-0.546 0.27,-0.542 0.27,-0.54 0.29,-0.539 0.29,-0.535 0.31,-0.533 0.32,-0.528 0.32,-0.525 0.34,-0.526 0.35,-0.521 0.36,-0.519 0.37,-0.514 0.38,-0.512 0.38,-0.508 0.4,-0.508 0.41,-0.503 0.41,-0.499 0.43,-0.496 0.44,-0.493 0.45,-0.489 0.45,-0.488 0.46,-0.482 0.48,-0.478 0.48,-0.478 0.49,-0.47 0.5,-0.468 0.51,-0.464 0.53,-0.46 0.52,-0.458 0.54,-0.453 0.55,-0.448 0.55,-0.445 0.56,-0.44 0.58,-0.436 0.58,-0.434 0.58,-0.428 0.6,-0.422 0.6,-0.419 0.62,-0.416 0.62,-0.409 0.63,-0.407 0.63,-0.401 0.65,-0.396 0.65,-0.394 0.66,-0.386 0.67,-0.383 0.67,-0.377 0.69,-0.372 0.69,-0.368 0.7,-0.364 0.7,-0.358 0.71,-0.352 0.72,-0.348 0.73,-0.342 0.73,-0.338 0.74,-0.33 0.75,-0.326 0.75,-0.322 0.76,-0.315 0.77,-0.309 0.77,-0.306 0.78,-0.298 0.78,-0.294 0.79,-0.288 0.8,-0.281 0.81,-0.276 0.81,-0.269 0.81,-0.264 0.83,-0.259 0.82,-0.252 0.84,-0.247 0.84,-0.24 0.84,-0.233 0.85,-0.228 0.86,-0.221 0.86,-0.216 0.86,-0.208 0.87,-0.203 0.88,-0.196 0.88,-0.189 0.89,-0.183 0.89,-0.177 0.89,-0.168 0.91,-0.164 0.9,-0.156 0.91,-0.15 0.92,-0.142 0.91,-0.136 0.93,-0.13 0.92,-0.121 0.93,-0.115 0.94,-0.108 0.94,-0.101 0.94,-0.092 0.95,-0.087 0.95,-0.08 0.96,-0.07 0.96,-0.066 0.96,-0.057 0.96,-0.049 0.97,-0.042 0.97,-0.034 0.98,-0.028 0.98,-0.019 0.98,-0.012 0.98,-0.003 0.99,0.003 0.98,0.013 0.98,0.02 0.97,0.03 0.97,0.037 0.97,0.044 0.97,0.053 0.96,0.06 0.96,0.07 0.95,0.074 0.95,0.084 0.95,0.091 0.94,0.099 0.94,0.106 0.94,0.115 0.93,0.121 0.92,0.128 0.93,0.136 0.91,0.142 0.92,0.15 0.91,0.158 0.9,0.162 0.9,0.171 0.9,0.179 0.89,0.184 0.89,0.19 0.88,0.198 0.87,0.204 0.87,0.21 0.87,0.216 0.86,0.224 0.86,0.23 0.85,0.234 0.84,0.243 0.84,0.248 0.83,0.255 0.83,0.258 0.82,0.267 0.82,0.271 0.81,0.278 0.81,0.282 0.79,0.289 0.8,0.295 0.78,0.298 0.78,0.306 0.77,0.31 0.77,0.316 0.76,0.32 0.75,0.326 0.75,0.332 0.74,0.337 0.74,0.34 0.72,0.345 0.72,0.351 0.71,0.356 0.71,0.36 0.7,0.364 0.69,0.369 0.68,0.375 0.68,0.377 0.67,0.382 0.66,0.388 0.65,0.389 0.65,0.395 0.63,0.398 0.64,0.404 0.62,0.406 0.61,0.409 0.61,0.416 0.6,0.416 0.58,0.421 0.58,0.426 0.58,0.428 0.56,0.43 0.55,0.436 0.55,0.439 0.54,0.44 0.53,0.445 0.52,0.448 0.51,0.451 0.5,0.452 0.49,0.456 0.49,0.459 0.47,0.461 0.47,0.464 0.45,0.467 0.45,0.469 0.44,0.469 0.42,0.475 0.42,0.475 0.41,0.477 0.4,0.481 0.39,0.482 0.37,0.481 0.37,0.485 0.36,0.488 0.35,0.488 0.34,0.491 0.32,0.492 0.32,0.492 0.31,0.495 0.29,0.494 0.29,0.498 0.27,0.498 0.27,0.498 0.25,0.501 0.25,0.5 0.23,0.501 0.22,0.502 0.21,0.502 0.2,0.504 0.19,0.506 0.18,0.505 0.16,0.503 0.16,0.505 0.14,0.505 0.13,0.508 0.13,0.506 0.11,0.506 0.1,0.507 0.08,0.507 0.04,0.254 0.04,0.251 0.03,0.252 0.03,0.255 0.03,0.252 0.03,0.252 0.02,0.256 0.02,0.254 0.01,0.248 0.02,0.252 0.01,0.256 v 0.255 l 0.01,0.252 v 0.26 z"
                 id="dp_path137-7-4"
                 inkscape:connector-curvature="0"
                 style="fill:#fe920d" />
            </g>
          </g>
        </g>
        <g
           id="dp_group138-7-6">
          <g
             id="dp_group139-6-6">
            <path
               d="m 1328.03,377.679 3.3,4.186 2.42,11.678 10.58,-25.332 -27.1,4.396 z"
               id="dp_path140-8-5"
               inkscape:connector-curvature="0"
               style="fill:#ffb200;fill-rule:evenodd" />
            <path
               d="m 1293.94,411.371 37.39,-29.504 -3.3,-4.187 -37.4,29.504 z"
               id="dp_path141-0-5"
               inkscape:connector-curvature="0"
               style="fill:#ffb200" />
          </g>
        </g>
        <g
           id="dp_group142-2-7">
          <g
             id="dp_group143-0-2">
            <path
               d="m 1325.58,425.076 -2.63,4.64 -9.9,6.652 27.46,0.228 -14.31,-23.431 z"
               id="dp_path144-6-0"
               inkscape:connector-curvature="0"
               style="fill:#c00000;fill-rule:evenodd" />
            <path
               d="m 1290.97,411.599 31.98,18.118 2.63,-4.64 -31.98,-18.118 z"
               id="dp_path145-3-5"
               inkscape:connector-curvature="0"
               style="fill:#c00000" />
          </g>
        </g>
      </g>
      <g
         transform="translate(376.34694,220.64054)"
         id="dp_group153-0-3">
        <path
           d="m 1158.54,324.613 v 9.056 c 0,0.886 0.09,1.436 0.26,1.654 0.18,0.22 0.53,0.358 1.05,0.416 v 0.442 h -4.94 v -1.546 c -0.58,0.66 -1.16,1.14 -1.74,1.437 -0.58,0.297 -1.23,0.448 -1.95,0.448 -0.68,0 -1.29,-0.201 -1.82,-0.6 -0.53,-0.399 -0.89,-0.868 -1.08,-1.404 -0.18,-0.533 -0.27,-1.469 -0.27,-2.805 v -4.586 c 0,-0.88 -0.08,-1.429 -0.25,-1.644 -0.17,-0.218 -0.52,-0.36 -1.06,-0.425 v -0.443 h 4.94 v 7.895 c 0,0.824 0.05,1.356 0.13,1.595 0.08,0.238 0.21,0.42 0.39,0.542 0.18,0.124 0.38,0.186 0.62,0.186 0.31,0 0.59,-0.078 0.84,-0.235 0.35,-0.215 0.77,-0.645 1.25,-1.296 v -6.175 c 0,-0.88 -0.08,-1.429 -0.25,-1.644 -0.17,-0.218 -0.52,-0.36 -1.06,-0.425 v -0.443 z"
           id="dp_path154-7-8"
           inkscape:connector-curvature="0"
           style="fill:#c00000;fill-rule:evenodd" />
        <path
           d="m 1186.84,336.52 -4.11,-8.964 c -0.49,-1.085 -0.88,-1.773 -1.16,-2.065 -0.19,-0.215 -0.49,-0.36 -0.88,-0.435 v -0.443 h 6.46 v 0.443 c -0.41,0 -0.69,0.071 -0.84,0.212 -0.2,0.183 -0.31,0.399 -0.31,0.645 0,0.308 0.19,0.883 0.58,1.73 l 1.99,4.34 1.61,-3.747 c 0.46,-1.077 0.69,-1.839 0.69,-2.284 0,-0.259 -0.1,-0.467 -0.3,-0.629 -0.19,-0.162 -0.54,-0.25 -1.03,-0.267 v -0.443 h 3.96 v 0.443 c -0.38,0.049 -0.69,0.187 -0.93,0.409 -0.25,0.223 -0.61,0.882 -1.1,1.971 l -4.04,9.084 z"
           id="dp_path155-9-0"
           inkscape:connector-curvature="0"
           style="fill:#fa8900;fill-rule:evenodd" />
        <path
           d="m 1164.82,336.104 6.39,-10 6.04,10"
           id="dp_path156-5-7"
           inkscape:connector-curvature="0"
           style="fill:none;fill-rule:evenodd;stroke:#000000;stroke-width:1.33333004" />
      </g>
      <path
         d="m 1598.6276,677.87473 v 9.056 c 0,0.885 0.09,1.436 0.26,1.653 0.17,0.22 0.52,0.359 1.05,0.416 v 0.443 h -4.94 v -1.547 c -0.58,0.66 -1.16,1.14 -1.74,1.437 -0.58,0.298 -1.23,0.448 -1.95,0.448 -0.69,0 -1.3,-0.201 -1.83,-0.6 -0.53,-0.398 -0.89,-0.868 -1.07,-1.404 -0.18,-0.533 -0.27,-1.469 -0.27,-2.805 v -4.585 c 0,-0.88 -0.09,-1.43 -0.26,-1.644 -0.16,-0.219 -0.51,-0.36 -1.05,-0.426 v -0.442 h 4.94 v 7.894 c 0,0.824 0.04,1.356 0.12,1.595 0.09,0.239 0.21,0.42 0.39,0.543 0.18,0.124 0.39,0.185 0.62,0.185 0.31,0 0.6,-0.077 0.85,-0.235 0.34,-0.214 0.76,-0.645 1.25,-1.296 v -6.174 c 0,-0.88 -0.09,-1.43 -0.25,-1.644 -0.17,-0.219 -0.52,-0.36 -1.06,-0.426 v -0.442 z"
         id="dp_path163-2-2"
         style="fill:#c00000;fill-rule:evenodd"
         inkscape:connector-curvature="0" />
      <path
         d="m 1606.0476,588.79273 -4.1,-8.964 c -0.5,-1.085 -0.88,-1.773 -1.16,-2.065 -0.2,-0.215 -0.5,-0.36 -0.88,-0.435 v -0.442 h 6.45 v 0.442 c -0.41,0 -0.68,0.071 -0.83,0.212 -0.21,0.183 -0.31,0.399 -0.31,0.646 0,0.308 0.19,0.882 0.57,1.729 l 2,4.34 1.6,-3.747 c 0.46,-1.077 0.69,-1.838 0.69,-2.284 0,-0.258 -0.1,-0.466 -0.29,-0.629 -0.2,-0.161 -0.54,-0.249 -1.04,-0.267 v -0.442 h 3.96 v 0.442 c -0.38,0.05 -0.69,0.187 -0.93,0.41 -0.24,0.222 -0.61,0.881 -1.09,1.97 l -4.05,9.084 z"
         id="dp_path164-8-3"
         style="fill:#fa8900;fill-rule:evenodd"
         inkscape:connector-curvature="0" />
    </g>
  </g>
</svg>
